<svg width="643" height="369" xmlns="http://www.w3.org/2000/svg" xmlns:xlink="http://www.w3.org/1999/xlink" xml:space="preserve" overflow="hidden"><g transform="translate(-1152 -477)"><rect x="0" y="0" width="161" height="225" stroke="#000000" stroke-width="4.58333" stroke-linecap="round" stroke-linejoin="round" stroke-miterlimit="10" fill="#AE5DFF" transform="matrix(-1 0 0 1 1315.5 479.5)"/><rect x="0" y="0" width="161" height="225" stroke="#000000" stroke-width="4.58333" stroke-linecap="round" stroke-linejoin="round" stroke-miterlimit="10" fill="#E84040" transform="matrix(-1 0 0 1 1474.5 479.5)"/><rect x="0" y="0" width="161" height="225" stroke="#000000" stroke-width="4.58333" stroke-linecap="round" stroke-linejoin="round" stroke-miterlimit="10" fill="#0FB523" transform="matrix(-1 0 0 1 1632.5 479.5)"/><rect x="0" y="0" width="161" height="225" stroke="#000000" stroke-width="4.58333" stroke-linecap="round" stroke-linejoin="round" stroke-miterlimit="10" fill="#005CE4" transform="matrix(-1 0 0 1 1792.5 479.5)"/><path d="M40.1178 18.4297 50.7514 47.7447 29.2691 47.7447ZM48.3344 0 31.5248 0 0 79.0001 17.2931 79.0001 24.1674 61.0552 55.6385 61.0552 62.1367 79.0001 79.0001 79.0001Z" fill="#FFFFFF" fill-rule="evenodd" transform="matrix(-1 0 0 1 1275 506)"/><path d="M55.0548 13.3641 55.0548 33.4105 43.2574 33.4105C35.6078 33.4105 30.8313 33.0872 28.9278 32.4405 27.0246 31.7938 25.5341 30.68 24.4569 29.0996 23.3793 27.5187 22.8407 25.5428 22.8407 23.1719 22.8407 20.5131 23.5498 18.3667 24.9683 16.7322 26.3872 15.0974 28.3892 14.0648 30.975 13.6335 32.268 13.4539 36.1464 13.3641 42.611 13.3641ZM71.0002 0 37.4393 0C28.9998 0 22.8675 0.709321 19.0427 2.12833 15.2179 3.54733 12.1564 6.07141 9.85797 9.69985 7.55952 13.3283 6.4103 17.4778 6.4103 22.1479 6.4103 28.0756 8.15205 32.9706 11.6355 36.8326 15.1194 40.6945 20.3266 43.1285 27.2581 44.1343 23.8104 46.1461 20.964 48.3555 18.7195 50.7626 16.4749 53.1694 13.4493 57.4445 9.6426 63.588L0 79.0001 19.0698 79.0001 30.5979 61.8094C34.692 55.6663 37.4932 51.7953 39.0015 50.1967 40.5098 48.5981 42.1082 47.5024 43.796 46.9093 45.4838 46.3166 48.1594 46.0204 51.8225 46.0204L55.0548 46.0204 55.0548 79.0001 71.0002 79.0001Z" fill="#FFFFFF" fill-rule="evenodd" transform="matrix(-1 0 0 1 1433 506)"/><path d="M34.7061 0C24.8824 0 17.2091 2.03916 11.6856 6.11783 6.16212 10.1961 2.60868 15.8333 1.02527 23.0285L16.8943 25.9669C18.0098 22.1202 20.1057 19.0834 23.1822 16.8572 26.2591 14.631 30.1002 13.5177 34.7061 13.5177 41.6871 13.5177 47.2374 15.7083 51.3577 20.0896 55.4776 24.471 57.5376 30.9719 57.5376 39.592 57.5376 48.8888 55.4508 55.8614 51.2765 60.5098 47.1025 65.1582 41.6331 67.4825 34.8682 67.4825 31.5215 67.4825 28.166 66.8323 24.8015 65.5323 21.4371 64.232 18.5495 62.656 16.1384 60.8035L16.1384 50.8655 34.4362 50.8655 34.4362 37.6684 0 37.6684 0 68.8715C3.34636 72.0774 8.19525 74.9002 14.5463 77.3404 20.8974 79.7802 27.3294 81.0001 33.8425 81.0001 42.1187 81.0001 49.3336 79.2816 55.4867 75.8441 61.6397 72.407 66.2638 67.4914 69.3584 61.0975 72.4531 54.7036 74.0003 47.7489 74.0003 40.2328 74.0003 32.0758 72.2732 24.8271 68.8188 18.4867 65.3644 12.1463 60.3084 7.28424 53.6516 3.90025 48.5778 1.29996 42.2627 0 34.7061 0Z" fill="#FFFFFF" fill-rule="evenodd" transform="matrix(-1 0 0 1 1588 505)"/><path d="M50.0913 44.5652 50.0913 65.6895 35.3648 65.6895C29.6319 65.6895 25.995 65.528 24.4545 65.2047 22.0894 64.7735 20.1635 63.7227 18.6768 62.052 17.1897 60.3817 16.4461 58.1452 16.4461 55.343 16.4461 52.9721 17.0196 50.96 18.1662 49.3074 19.3127 47.6549 20.9699 46.4513 23.1378 45.6971 25.3053 44.9425 30.0082 44.5652 37.246 44.5652ZM50.0913 13.1487 50.0913 31.4165 39.6644 31.4165C33.4657 31.4165 29.6139 31.3267 28.1091 31.1471 25.3862 30.8238 23.245 29.8809 21.6864 28.3182 20.1278 26.7554 19.3485 24.6984 19.3485 22.1479 19.3485 19.7049 20.0205 17.72 21.3639 16.1931 22.7077 14.6665 24.7051 13.7414 27.3568 13.4181 28.9332 13.2385 33.4657 13.1487 40.9544 13.1487ZM66 0 34.505 0C28.2705 0 23.6213 0.260338 20.5579 0.781376 17.4945 1.30205 14.7531 2.38903 12.3347 4.04157 9.9162 5.69412 7.90074 7.8945 6.28831 10.6427 4.67588 13.3909 3.86984 16.4715 3.86984 19.8845 3.86984 23.585 4.86402 26.9799 6.85275 30.0696 8.84112 33.1592 11.5377 35.4762 14.9413 37.0212 10.1401 38.4221 6.44937 40.8111 3.86984 44.1883 1.28995 47.5651 0 51.535 0 56.0976 0 59.6902 0.833121 63.1839 2.49936 66.5788 4.16524 69.9737 6.44071 72.6861 9.32503 74.7159 12.2094 76.7457 15.7654 77.9942 19.9935 78.4609 22.6449 78.7484 29.0408 78.928 39.1809 79.0001L66 79.0001Z" fill="#FFFFFF" fill-rule="evenodd" transform="matrix(-1 0 0 1 1744 506)"/><path d="M25.5527 43.3116C29.1856 43.3116 31.8926 44.5912 33.6735 47.1508 35.4547 49.71 36.3452 52.4858 36.3452 55.4777 36.3452 59.6595 35.2958 62.9217 33.1975 65.2648 31.0988 67.6078 28.48 68.7795 25.3412 68.7795 22.2728 68.7795 19.7333 67.6529 17.7231 65.3999 15.7126 63.147 14.7073 59.8938 14.7073 55.6401 14.7073 51.927 15.7303 48.9441 17.7757 46.6912 19.8215 44.4383 22.4139 43.3116 25.5527 43.3116ZM25.6057 12.0578C28.4626 12.0578 30.7373 12.9233 32.4304 14.6534 34.1231 16.3839 34.9699 18.6728 34.9699 21.5205 34.9699 24.5487 34.132 26.9096 32.4567 28.6041 30.7814 30.2983 28.5508 31.1455 25.7642 31.1455 22.9429 31.1455 20.6856 30.2892 18.9925 28.5768 17.2997 26.8645 16.4534 24.4946 16.4534 21.4663 16.4534 18.6186 17.2908 16.3388 18.9662 14.6265 20.6415 12.9142 22.8547 12.0578 25.6057 12.0578ZM25.7642 0C18.3932 0 12.6708 1.9285 8.59708 5.78549 4.52338 9.64285 2.48652 14.5273 2.48652 20.4392 2.48652 24.116 3.42106 27.3873 5.29048 30.2532 7.15991 33.1191 9.7872 35.3088 13.1731 36.8231 8.87044 38.5892 5.59903 41.1666 3.35956 44.5552 1.11974 47.9439 0 51.8551 0 56.289 0 63.6066 2.28391 69.5545 6.851 74.1327 11.4185 78.7109 17.4938 80.9998 25.0767 80.9998 32.1304 80.9998 38.0028 79.1072 42.6936 75.3222 48.2311 70.8523 50.9999 64.7242 50.9999 56.9379 50.9999 52.6482 49.9594 48.7098 47.8785 45.1231 45.7975 41.5361 42.5172 38.7694 38.0383 36.8231 41.8824 35.1649 44.6778 32.8847 46.4235 29.9829 48.1693 27.0811 49.0423 23.8998 49.0423 20.4392 49.0423 14.5273 47.0232 9.64285 42.9847 5.78549 38.9465 1.9285 33.2064 0 25.7642 0Z" fill="#FFFFFF" fill-rule="evenodd" transform="matrix(-1 0 0 1 1737 599)"/><path d="M25.5529 43.3116C29.1859 43.3116 31.8928 44.5912 33.6737 47.1508 35.455 49.71 36.3455 52.4858 36.3455 55.4777 36.3455 59.6595 35.2961 62.9217 33.1977 65.2648 31.099 67.6078 28.4802 68.7795 25.3414 68.7795 22.2729 68.7795 19.7334 67.6529 17.7232 65.3999 15.7127 63.147 14.7074 59.8938 14.7074 55.6401 14.7074 51.927 15.7304 48.9441 17.7758 46.6912 19.8216 44.4383 22.4141 43.3116 25.5529 43.3116ZM25.6059 12.0578C28.4628 12.0578 30.7375 12.9233 32.4306 14.6534 34.1234 16.3839 34.9701 18.6728 34.9701 21.5205 34.9701 24.5487 34.1323 26.9096 32.4569 28.6041 30.7816 30.2983 28.551 31.1455 25.7644 31.1455 22.943 31.1455 20.6858 30.2892 18.9926 28.5768 17.2999 26.8645 16.4535 24.4946 16.4535 21.4663 16.4535 18.6186 17.291 16.3388 18.9663 14.6265 20.6417 12.9142 22.8549 12.0578 25.6059 12.0578ZM25.7644 0C18.3933 0 12.6709 1.9285 8.59714 5.78549 4.52341 9.64285 2.48654 14.5273 2.48654 20.4392 2.48654 24.116 3.42108 27.3873 5.29052 30.2532 7.15996 33.1191 9.78727 35.3088 13.1732 36.8231 8.8705 38.5892 5.59907 41.1666 3.35959 44.5552 1.11974 47.9439 0 51.8551 0 56.289 0 63.6066 2.28392 69.5545 6.85105 74.1327 11.4185 78.7109 17.4939 80.9998 25.0769 80.9998 32.1306 80.9998 38.003 79.1072 42.6939 75.3222 48.2314 70.8523 51.0002 64.7242 51.0002 56.9379 51.0002 52.6482 49.9598 48.7098 47.8788 45.1231 45.7979 41.5361 42.5176 38.7694 38.0386 36.8231 41.8827 35.1649 44.6781 32.8847 46.4239 29.9829 48.1696 27.0811 49.0426 23.8998 49.0426 20.4392 49.0426 14.5273 47.0235 9.64285 42.985 5.78549 38.9468 1.9285 33.2066 0 25.7644 0Z" fill="#FFFFFF" fill-rule="evenodd" transform="matrix(-1 0 0 1 1578 599)"/><path d="M26.0538 43.3116C29.7579 43.3116 32.5179 44.5912 34.3338 47.1508 36.15 49.71 37.0579 52.4858 37.0579 55.4777 37.0579 59.6595 35.9879 62.9217 33.8484 65.2648 31.7086 67.6078 29.0385 68.7795 25.8381 68.7795 22.7095 68.7795 20.1202 67.6529 18.0706 65.3999 16.0207 63.147 14.9957 59.8938 14.9957 55.6401 14.9957 51.927 16.0388 48.9441 18.1243 46.6912 20.2101 44.4383 22.8534 43.3116 26.0538 43.3116ZM26.1078 12.0578C29.0207 12.0578 31.34 12.9233 33.0663 14.6534 34.7922 16.3839 35.6556 18.6728 35.6556 21.5205 35.6556 24.5487 34.8013 26.9096 33.0931 28.6041 31.3849 30.2983 29.1106 31.1455 26.2694 31.1455 23.3927 31.1455 21.0912 30.2892 19.3649 28.5768 17.639 26.8645 16.776 24.4946 16.776 21.4663 16.776 18.6186 17.6299 16.3388 19.3381 14.6265 21.0463 12.9142 23.3028 12.0578 26.1078 12.0578ZM26.2694 0C18.7538 0 12.9192 1.9285 8.76566 5.78549 4.61207 9.64285 2.53528 14.5273 2.53528 20.4392 2.53528 24.116 3.48814 27.3873 5.39422 30.2532 7.3003 33.1191 9.97911 35.3088 13.4314 36.8231 9.04437 38.5892 5.70882 41.1666 3.42544 44.5552 1.14169 47.9439 0 51.8551 0 56.289 0 63.6066 2.32869 69.5545 6.98534 74.1327 11.6424 78.7109 17.8369 80.9998 25.5685 80.9998 32.7604 80.9998 38.7479 79.1072 43.5307 75.3222 49.1768 70.8523 51.9999 64.7242 51.9999 56.9379 51.9999 52.6482 50.939 48.7098 48.8173 45.1231 46.6956 41.5361 43.351 38.7694 38.7842 36.8231 42.7036 35.1649 45.5539 32.8847 47.3338 29.9829 49.1138 27.0811 50.0039 23.8998 50.0039 20.4392 50.0039 14.5273 47.9453 9.64285 43.8276 5.78549 39.7102 1.9285 33.8575 0 26.2694 0Z" fill="#FFFFFF" fill-rule="evenodd" transform="matrix(-1 0 0 1 1421 599)"/><path d="M26.0538 43.3116C29.7579 43.3116 32.5179 44.5912 34.3338 47.1508 36.15 49.71 37.0579 52.4858 37.0579 55.4777 37.0579 59.6595 35.9879 62.9217 33.8484 65.2648 31.7086 67.6078 29.0385 68.7795 25.8381 68.7795 22.7095 68.7795 20.1202 67.6529 18.0706 65.3999 16.0207 63.147 14.9957 59.8938 14.9957 55.6401 14.9957 51.927 16.0388 48.9441 18.1243 46.6912 20.2101 44.4383 22.8534 43.3116 26.0538 43.3116ZM26.1078 12.0578C29.0207 12.0578 31.34 12.9233 33.0663 14.6534 34.7922 16.3839 35.6556 18.6728 35.6556 21.5205 35.6556 24.5487 34.8013 26.9096 33.0931 28.6041 31.3849 30.2983 29.1106 31.1455 26.2694 31.1455 23.3927 31.1455 21.0912 30.2892 19.3649 28.5768 17.639 26.8645 16.776 24.4946 16.776 21.4663 16.776 18.6186 17.6299 16.3388 19.3381 14.6265 21.0463 12.9142 23.3028 12.0578 26.1078 12.0578ZM26.2694 0C18.7538 0 12.9192 1.9285 8.76566 5.78549 4.61207 9.64285 2.53528 14.5273 2.53528 20.4392 2.53528 24.116 3.48814 27.3873 5.39422 30.2532 7.3003 33.1191 9.97911 35.3088 13.4314 36.8231 9.04437 38.5892 5.70882 41.1666 3.42544 44.5552 1.14169 47.9439 0 51.8551 0 56.289 0 63.6066 2.32869 69.5545 6.98534 74.1327 11.6424 78.7109 17.8369 80.9998 25.5685 80.9998 32.7604 80.9998 38.7479 79.1072 43.5307 75.3222 49.1768 70.8523 51.9999 64.7242 51.9999 56.9379 51.9999 52.6482 50.939 48.7098 48.8173 45.1231 46.6956 41.5361 43.351 38.7694 38.7842 36.8231 42.7036 35.1649 45.5539 32.8847 47.3338 29.9829 49.1138 27.0811 50.0039 23.8998 50.0039 20.4392 50.0039 14.5273 47.9453 9.64285 43.8276 5.78549 39.7102 1.9285 33.8575 0 26.2694 0Z" fill="#FFFFFF" fill-rule="evenodd" transform="matrix(-1 0 0 1 1261 599)"/><path d="M0 0 581.692 0 638 61.0004 581.692 122 0 122Z" fill="#00B0F0" fill-rule="evenodd" transform="matrix(-1 0 0 1 1792 724)"/><path d="M1421 744.647 1436.87 744.647 1436.87 809.69 1476.34 809.69 1476.34 823 1421 823ZM1489.21 744 1547.5 744 1547.5 757.364 1505.08 757.364 1505.08 774.878 1544.55 774.878 1544.55 788.188 1505.08 788.188 1505.08 809.69 1549 809.69 1549 823 1489.21 823Z" fill-rule="evenodd"/></g></svg>