<svg width="647" height="316" xmlns="http://www.w3.org/2000/svg" xmlns:xlink="http://www.w3.org/1999/xlink" xml:space="preserve" overflow="hidden"><g transform="translate(-1827 -145)"><rect x="1829.5" y="147.5" width="297" height="284" stroke="#000000" stroke-width="4.58333" stroke-linecap="round" stroke-linejoin="round" stroke-miterlimit="10" fill="#FFFFFF"/><path d="M2126 146 1829 146 1829 431 2126 146Z" fill-rule="evenodd"/><path d="M2146 247.833 2373.33 247.834 2373.33 266.167 2146 266.167ZM2364.16 229.5 2419.16 257 2364.16 284.5Z"/><path d="M2146 321.833 2373.33 321.834 2373.33 340.167 2146 340.167ZM2364.16 303.5 2419.16 331 2364.16 358.5Z"/><path d="M2146 396.833 2373.33 396.834 2373.33 415.167 2146 415.167ZM2364.16 378.5 2419.16 406 2364.16 433.5Z"/><path d="M0 0 233.526 71.1727" stroke="#000000" stroke-width="4.58333" stroke-linejoin="round" stroke-miterlimit="10" stroke-dasharray="18.3333 13.75" fill="none" fill-rule="evenodd" transform="matrix(-1 0 0 1 2380.03 259.5)"/><path d="M0 0 237.49 72.7545" stroke="#000000" stroke-width="4.58333" stroke-linejoin="round" stroke-miterlimit="10" stroke-dasharray="18.3333 13.75" fill="none" fill-rule="evenodd" transform="matrix(-1 0 0 1 2383.99 331.5)"/><path d="M2354.03 189.447C2352.58 189.93 2350.28 190.506 2347.14 191.176 2344 191.846 2341.95 192.503 2340.98 193.146 2339.51 194.192 2338.77 195.519 2338.77 197.127 2338.77 198.709 2339.36 200.076 2340.54 201.229 2341.72 202.382 2343.22 202.958 2345.05 202.958 2347.09 202.958 2349.04 202.288 2350.89 200.947 2352.26 199.929 2353.16 198.682 2353.59 197.208 2353.88 196.243 2354.03 194.406 2354.03 191.699ZM2202.01 182.933 2224.23 182.933 2224.23 194.232 2202.01 194.232ZM2399.62 166.286C2402.12 166.286 2404.4 166.734 2406.47 167.632 2408.54 168.531 2410.1 169.677 2411.16 171.07 2412.22 172.464 2412.96 174.046 2413.38 175.815 2413.79 177.585 2414 180.118 2414 183.415L2414 209.955 2402.69 209.955 2402.69 188.16C2402.69 183.549 2402.44 180.567 2401.96 179.213 2401.48 177.86 2400.69 176.807 2399.6 176.057 2398.52 175.306 2397.21 174.931 2395.68 174.931 2393.72 174.931 2391.96 175.467 2390.4 176.539 2388.85 177.611 2387.78 179.032 2387.2 180.802 2386.63 182.571 2386.34 185.842 2386.34 190.613L2386.34 209.955 2375.02 209.955 2375.02 167.25 2385.53 167.25 2385.53 173.523C2389.26 168.698 2393.96 166.286 2399.62 166.286ZM2347.14 166.286C2352.19 166.286 2355.95 166.882 2358.42 168.075 2360.89 169.268 2362.63 170.782 2363.63 172.619 2364.64 174.455 2365.14 177.826 2365.14 182.732L2365.02 195.921C2365.02 199.674 2365.2 202.442 2365.57 204.225 2365.93 206.007 2366.61 207.917 2367.6 209.955L2356.4 209.955C2356.11 209.204 2355.75 208.091 2355.32 206.617 2355.13 205.947 2354.99 205.505 2354.91 205.29 2352.98 207.167 2350.91 208.574 2348.71 209.512 2346.51 210.451 2344.16 210.92 2341.67 210.92 2337.26 210.92 2333.79 209.727 2331.26 207.341 2328.72 204.955 2327.45 201.939 2327.45 198.293 2327.45 195.881 2328.03 193.729 2329.18 191.84 2330.34 189.95 2331.96 188.502 2334.04 187.497 2336.12 186.491 2339.12 185.613 2343.04 184.863 2348.32 183.871 2351.99 182.946 2354.03 182.088L2354.03 180.962C2354.03 178.791 2353.49 177.243 2352.42 176.318 2351.34 175.393 2349.32 174.931 2346.34 174.931 2344.32 174.931 2342.75 175.326 2341.63 176.117 2340.5 176.908 2339.59 178.295 2338.89 180.279L2328.62 178.429C2329.77 174.301 2331.76 171.245 2334.58 169.261 2337.4 167.277 2341.59 166.286 2347.14 166.286ZM2304 166.286C2309.21 166.286 2313.35 167.404 2316.43 169.643 2319.5 171.881 2321.71 175.293 2323.05 179.877L2311.9 181.887C2311.52 179.662 2310.67 177.987 2309.34 176.861 2308.01 175.735 2306.28 175.172 2304.16 175.172 2301.35 175.172 2299.1 176.144 2297.42 178.087 2295.74 180.031 2294.9 183.281 2294.9 187.838 2294.9 192.905 2295.75 196.484 2297.46 198.575 2299.16 200.666 2301.45 201.711 2304.33 201.711 2306.47 201.711 2308.23 201.102 2309.6 199.882 2310.97 198.662 2311.94 196.564 2312.5 193.589L2323.61 195.478C2322.46 200.572 2320.24 204.419 2316.97 207.019 2313.69 209.62 2309.3 210.92 2303.8 210.92 2297.55 210.92 2292.56 208.95 2288.84 205.009 2285.12 201.068 2283.27 195.613 2283.27 188.643 2283.27 181.592 2285.13 176.104 2288.86 172.176 2292.59 168.249 2297.64 166.286 2304 166.286ZM2145 151.005 2156.92 151.005 2156.92 174.207 2180.27 174.207 2180.27 151.005 2192.19 151.005 2192.19 209.955 2180.27 209.955 2180.27 184.179 2156.92 184.179 2156.92 209.955 2145 209.955ZM2251.52 150C2258.93 150 2264.51 151.622 2268.25 154.865 2272 158.109 2273.96 162.438 2274.15 167.854L2262.23 168.376C2261.72 165.347 2260.63 163.169 2258.95 161.842 2257.27 160.515 2254.76 159.852 2251.4 159.852 2247.94 159.852 2245.23 160.562 2243.27 161.983 2242 162.894 2241.37 164.114 2241.37 165.642 2241.37 167.036 2241.96 168.229 2243.15 169.221 2244.65 170.481 2248.3 171.794 2254.1 173.162 2259.9 174.529 2264.19 175.943 2266.96 177.404 2269.74 178.865 2271.92 180.862 2273.49 183.395 2275.06 185.928 2275.84 189.058 2275.84 192.785 2275.84 196.162 2274.9 199.326 2273.02 202.274 2271.14 205.223 2268.49 207.415 2265.05 208.849 2261.61 210.283 2257.33 211 2252.21 211 2244.74 211 2239.01 209.278 2235.01 205.833 2231.01 202.388 2228.62 197.369 2227.84 190.774L2239.44 189.648C2240.14 193.535 2241.55 196.39 2243.69 198.213 2245.82 200.036 2248.7 200.947 2252.33 200.947 2256.17 200.947 2259.06 200.136 2261 198.515 2262.95 196.893 2263.92 194.996 2263.92 192.825 2263.92 191.431 2263.51 190.244 2262.7 189.266 2261.88 188.288 2260.45 187.436 2258.41 186.713 2257.01 186.23 2253.83 185.372 2248.86 184.139 2242.47 182.558 2237.99 180.614 2235.41 178.308 2231.79 175.065 2229.98 171.111 2229.98 166.446 2229.98 163.444 2230.83 160.636 2232.53 158.022 2234.24 155.408 2236.7 153.418 2239.9 152.051 2243.11 150.684 2246.98 150 2251.52 150Z" fill-rule="evenodd"/><path d="M1879.45 229.797 1879.45 258.141 1899.31 258.141C1907.04 258.141 1911.95 257.924 1914.02 257.49 1917.21 256.911 1919.81 255.502 1921.81 253.26 1923.82 251.018 1924.82 248.018 1924.82 244.258 1924.82 241.077 1924.05 238.377 1922.5 236.16 1920.96 233.942 1918.72 232.327 1915.8 231.315 1912.88 230.303 1906.53 229.797 1896.77 229.797ZM1879.45 187.643 1879.45 212.154 1893.51 212.154C1901.87 212.154 1907.07 212.034 1909.1 211.793 1912.77 211.359 1915.65 210.094 1917.76 207.997 1919.86 205.9 1920.91 203.14 1920.91 199.718 1920.91 196.44 1920 193.777 1918.19 191.728 1916.38 189.679 1913.69 188.438 1910.11 188.004 1907.98 187.763 1901.87 187.643 1891.77 187.643ZM1858 170 1900.47 170C1908.88 170 1915.15 170.35 1919.28 171.049 1923.41 171.748 1927.11 173.206 1930.37 175.423 1933.63 177.64 1936.35 180.593 1938.52 184.281 1940.69 187.968 1941.78 192.102 1941.78 196.681 1941.78 201.646 1940.44 206.201 1937.76 210.347 1935.08 214.492 1931.44 217.601 1926.85 219.674 1933.33 221.554 1938.3 224.759 1941.78 229.291 1945.26 233.822 1947 239.148 1947 245.27 1947 250.091 1945.88 254.779 1943.63 259.334 1941.38 263.889 1938.32 267.528 1934.43 270.252 1930.54 272.975 1925.74 274.65 1920.04 275.277 1916.46 275.663 1907.84 275.904 1894.17 276L1858 276Z" fill="#FFFFFF" fill-rule="evenodd"/><path d="M1973 307 1994.89 307 2010.86 379.812 2030.22 307 2055.65 307 2074.22 381.041 2090.47 307 2112 307 2086.28 413 2063.6 413 2042.5 333.753 2021.48 413 1998.29 413Z" fill-rule="evenodd"/></g></svg>