<svg width="1057" height="885" xmlns="http://www.w3.org/2000/svg" xmlns:xlink="http://www.w3.org/1999/xlink" xml:space="preserve" overflow="hidden"><defs><linearGradient x1="3163" y1="127" x2="4038" y2="1002" gradientUnits="userSpaceOnUse" spreadMethod="reflect" id="fill0"><stop offset="0" stop-color="#959595"/><stop offset="0.5" stop-color="#FFFFFF"/><stop offset="1" stop-color="#D9D9D9"/></linearGradient></defs><g transform="translate(-3072 -213)"><rect x="3074.5" y="215.5" width="1052" height="698" stroke="#000000" stroke-width="4.58333" stroke-linecap="round" stroke-linejoin="round" stroke-miterlimit="10" fill="url(#fill0)"/><rect x="3089.5" y="227.5" width="1022" height="612" stroke="#000000" stroke-width="4.58333" stroke-linecap="round" stroke-linejoin="round" stroke-miterlimit="10" fill="#ADAC9D"/><rect x="3132" y="270" width="976" height="564" fill="#DFE5DB"/><text fill="#ADAC9D" font-family="Arial,Arial_MSFontService,sans-serif" font-weight="700" font-size="202" transform="matrix(1 0 0 1 3438.01 630)">B/W</text><text fill="#262626" font-family="Arial,Arial_MSFontService,sans-serif" font-weight="700" font-size="202" transform="matrix(1 0 0 1 3403.76 597)">B/W</text><path d="M3505.5 913.5 3719.5 913.5 3670.17 962.952 3670.17 1095.5 3554.83 1095.5 3554.83 962.952Z" stroke="#000000" stroke-width="4.58333" stroke-linecap="round" stroke-linejoin="round" stroke-miterlimit="10" fill="#98774A" fill-rule="evenodd"/><rect x="3560" y="1022" width="20.0002" height="68.0001" fill="#D9D9D9"/><rect x="3588" y="1022" width="20" height="68.0001" fill="#D9D9D9"/><rect x="3616" y="1022" width="20" height="68.0001" fill="#D9D9D9"/><rect x="3644" y="1022" width="20" height="68.0001" fill="#D9D9D9"/></g></svg>