<svg width="756" height="712" xmlns="http://www.w3.org/2000/svg" xmlns:xlink="http://www.w3.org/1999/xlink" xml:space="preserve" overflow="hidden"><defs><linearGradient x1="2627.33" y1="738.28" x2="1945.67" y2="344.72" gradientUnits="userSpaceOnUse" spreadMethod="reflect" id="fill0"><stop offset="0" stop-color="#156082"/><stop offset="0.55" stop-color="#001732"/><stop offset="1" stop-color="#001732"/></linearGradient></defs><g transform="translate(-1909 -227)"><path d="M1911.5 245.867C1911.5 236.828 1918.83 229.5 1927.87 229.5L2646.13 229.5C2655.17 229.5 2662.5 236.828 2662.5 245.867L2662.5 920.133C2662.5 929.172 2655.17 936.5 2646.13 936.5L1927.87 936.5C1918.83 936.5 1911.5 929.172 1911.5 920.133Z" stroke="#000000" stroke-width="4.58333" stroke-linecap="round" stroke-linejoin="round" stroke-miterlimit="10" fill="#215F9A" fill-rule="evenodd"/><path d="M1933 287.5C1933 266.789 1949.79 250 1970.5 250 1991.21 250 2008 266.789 2008 287.5 2008 308.211 1991.21 325 1970.5 325 1949.79 325 1933 308.211 1933 287.5Z" stroke="#BFBFBF" stroke-width="13.75" stroke-linecap="round" stroke-linejoin="round" stroke-miterlimit="10" fill-rule="evenodd"/><path d="M2565 287.5C2565 266.789 2581.79 250 2602.5 250 2623.21 250 2640 266.789 2640 287.5 2640 308.211 2623.21 325 2602.5 325 2581.79 325 2565 308.211 2565 287.5Z" stroke="#BFBFBF" stroke-width="13.75" stroke-linecap="round" stroke-linejoin="round" stroke-miterlimit="10" fill-rule="evenodd"/><path d="M1933 877.5C1933 856.789 1949.79 840 1970.5 840 1991.21 840 2008 856.789 2008 877.5 2008 898.211 1991.21 915 1970.5 915 1949.79 915 1933 898.211 1933 877.5Z" stroke="#BFBFBF" stroke-width="13.75" stroke-linecap="round" stroke-linejoin="round" stroke-miterlimit="10" fill-rule="evenodd"/><path d="M2565 877.5C2565 856.789 2581.79 840 2602.5 840 2623.21 840 2640 856.789 2640 877.5 2640 898.211 2623.21 915 2602.5 915 2581.79 915 2565 898.211 2565 877.5Z" stroke="#BFBFBF" stroke-width="13.75" stroke-linecap="round" stroke-linejoin="round" stroke-miterlimit="10" fill-rule="evenodd"/><path d="M2152 287.5C2152 275.626 2161.63 266 2173.5 266 2185.37 266 2195 275.626 2195 287.5 2195 299.374 2185.37 309 2173.5 309 2161.63 309 2152 299.374 2152 287.5Z" stroke="#BFBFBF" stroke-width="13.75" stroke-linecap="round" stroke-linejoin="round" stroke-miterlimit="10" fill-rule="evenodd"/><path d="M2228 287.5C2228 275.626 2237.63 266 2249.5 266 2261.37 266 2271 275.626 2271 287.5 2271 299.374 2261.37 309 2249.5 309 2237.63 309 2228 299.374 2228 287.5Z" stroke="#BFBFBF" stroke-width="13.75" stroke-linecap="round" stroke-linejoin="round" stroke-miterlimit="10" fill-rule="evenodd"/><path d="M2303 287.5C2303 275.626 2312.63 266 2324.5 266 2336.37 266 2346 275.626 2346 287.5 2346 299.374 2336.37 309 2324.5 309 2312.63 309 2303 299.374 2303 287.5Z" stroke="#BFBFBF" stroke-width="13.75" stroke-linecap="round" stroke-linejoin="round" stroke-miterlimit="10" fill-rule="evenodd"/><path d="M2378 287.5C2378 275.626 2387.63 266 2399.5 266 2411.37 266 2421 275.626 2421 287.5 2421 299.374 2411.37 309 2399.5 309 2387.63 309 2378 299.374 2378 287.5Z" stroke="#BFBFBF" stroke-width="13.75" stroke-linecap="round" stroke-linejoin="round" stroke-miterlimit="10" fill-rule="evenodd"/><rect x="1928.5" y="347.5" width="718" height="475" stroke="#000000" stroke-width="4.58333" stroke-linecap="round" stroke-linejoin="round" stroke-miterlimit="10"/><rect x="1938" y="358" width="697" height="367" fill="url(#fill0)"/><text fill="#B7FCFF" font-family="Arial,Arial_MSFontService,sans-serif" font-weight="700" font-size="220" transform="matrix(1 0 0 1 2073.02 623)">B/W</text><rect x="2115.5" y="822.5" width="343" height="114" stroke="#000000" stroke-width="4.58333" stroke-linecap="round" stroke-linejoin="round" stroke-miterlimit="10" fill="#6A5334"/></g></svg>