<svg width="611" height="337" xmlns="http://www.w3.org/2000/svg" xmlns:xlink="http://www.w3.org/1999/xlink" xml:space="preserve" overflow="hidden"><g transform="translate(-1827 -554)"><rect x="1829.5" y="556.5" width="297" height="284" stroke="#000000" stroke-width="4.58333" stroke-linecap="round" stroke-linejoin="round" stroke-miterlimit="10" fill="#FFFFFF"/><path d="M2126 555 1829 555 1829 840 2126 555Z" fill-rule="evenodd"/><path d="M3.01938e-05-8.02083 55.7651-8.02062 55.7651 8.02104-3.01938e-05 8.02083ZM47.7444-24.0623 95.8693 0.000360892 47.7442 24.0627Z" transform="matrix(1.83697e-16 1 1 -1.83697e-16 2173 636)"/><path d="M3.01938e-05-8.02083 55.7651-8.02062 55.7651 8.02104-3.01938e-05 8.02083ZM47.7444-24.0623 95.8693 0.000360892 47.7442 24.0627Z" transform="matrix(1.83697e-16 1 1 -1.83697e-16 2245 636)"/><path d="M3.01938e-05-8.02083 55.7651-8.02062 55.7651 8.02104-3.01938e-05 8.02083ZM47.7444-24.0623 95.8693 0.000360892 47.7442 24.0627Z" transform="matrix(1.83697e-16 1 1 -1.83697e-16 2317 636)"/><path d="M3.01938e-05-8.02083 55.7651-8.02062 55.7651 8.02104-3.01938e-05 8.02083ZM47.7444-24.0623 95.8693 0.000360892 47.7442 24.0627Z" transform="matrix(1.83697e-16 1 1 -1.83697e-16 2389 636)"/><path d="M2174.5 710.488 2243.87 636.5" stroke="#000000" stroke-width="4.58333" stroke-linecap="square" stroke-linejoin="round" stroke-miterlimit="10" stroke-dasharray="13.75 4.58333" fill="none" fill-rule="evenodd"/><path d="M2245.5 711.744 2316.41 636.5" stroke="#000000" stroke-width="4.58333" stroke-linecap="square" stroke-linejoin="round" stroke-miterlimit="10" stroke-dasharray="13.75 4.58333" fill="none" fill-rule="evenodd"/><path d="M2317.5 711.744 2388.41 636.5" stroke="#000000" stroke-width="4.58333" stroke-linecap="square" stroke-linejoin="round" stroke-miterlimit="10" stroke-dasharray="13.75 4.58333" fill="none" fill-rule="evenodd"/><path d="M3.01938e-05-8.02083 55.7651-8.02062 55.7651 8.02104-3.01938e-05 8.02083ZM47.7444-24.0623 95.8693 0.000360892 47.7442 24.0627Z" transform="matrix(1.83697e-16 1 1 -1.83697e-16 2173 746)"/><path d="M3.01938e-05-8.02083 55.7651-8.02062 55.7651 8.02104-3.01938e-05 8.02083ZM47.7444-24.0623 95.8693 0.000360892 47.7442 24.0627Z" transform="matrix(1.83697e-16 1 1 -1.83697e-16 2245 746)"/><path d="M3.01938e-05-8.02083 55.7651-8.02062 55.7651 8.02104-3.01938e-05 8.02083ZM47.7444-24.0623 95.8693 0.000360892 47.7442 24.0627Z" transform="matrix(1.83697e-16 1 1 -1.83697e-16 2317 746)"/><path d="M3.01938e-05-8.02083 55.7651-8.02062 55.7651 8.02104-3.01938e-05 8.02083ZM47.7444-24.0623 95.8693 0.000360892 47.7442 24.0627Z" transform="matrix(1.83697e-16 1 1 -1.83697e-16 2389 746)"/><path d="M2174.5 820.488 2243.87 746.5" stroke="#000000" stroke-width="4.58333" stroke-linecap="square" stroke-linejoin="round" stroke-miterlimit="10" stroke-dasharray="13.75 4.58333" fill="none" fill-rule="evenodd"/><path d="M2245.5 821.744 2316.41 746.5" stroke="#000000" stroke-width="4.58333" stroke-linecap="square" stroke-linejoin="round" stroke-miterlimit="10" stroke-dasharray="13.75 4.58333" fill="none" fill-rule="evenodd"/><path d="M2317.5 821.744 2388.41 746.5" stroke="#000000" stroke-width="4.58333" stroke-linecap="square" stroke-linejoin="round" stroke-miterlimit="10" stroke-dasharray="13.75 4.58333" fill="none" fill-rule="evenodd"/><path d="M2311.29 593.497C2309.85 593.98 2307.55 594.557 2304.42 595.228 2301.28 595.899 2299.23 596.557 2298.27 597.201 2296.79 598.248 2296.06 599.577 2296.06 601.188 2296.06 602.772 2296.65 604.141 2297.83 605.295 2299 606.45 2300.51 607.027 2302.33 607.027 2304.36 607.027 2306.31 606.356 2308.16 605.013 2309.52 603.993 2310.42 602.745 2310.85 601.268 2311.15 600.302 2311.29 598.463 2311.29 595.752ZM2204.12 586.973 2226.31 586.973 2226.31 598.289 2204.12 598.289ZM2350.54 570.302C2355.74 570.302 2359.87 571.423 2362.94 573.664 2366.01 575.906 2368.22 579.322 2369.56 583.913L2358.42 585.926C2358.04 583.698 2357.19 582.02 2355.87 580.893 2354.54 579.765 2352.82 579.201 2350.7 579.201 2347.89 579.201 2345.64 580.174 2343.97 582.121 2342.29 584.067 2341.46 587.322 2341.46 591.886 2341.46 596.96 2342.31 600.544 2344.01 602.637 2345.71 604.732 2347.99 605.779 2350.86 605.779 2353.01 605.779 2354.76 605.168 2356.13 603.946 2357.5 602.725 2358.46 600.624 2359.02 597.644L2370.12 599.537C2368.97 604.638 2366.75 608.49 2363.49 611.094 2360.22 613.698 2355.83 615 2350.34 615 2344.1 615 2339.12 613.027 2335.41 609.081 2331.69 605.134 2329.84 599.671 2329.84 592.691 2329.84 585.631 2331.7 580.134 2335.43 576.201 2339.15 572.268 2344.19 570.302 2350.54 570.302ZM2304.42 570.302C2309.46 570.302 2313.21 570.899 2315.67 572.094 2318.14 573.289 2319.88 574.806 2320.88 576.644 2321.88 578.483 2322.39 581.859 2322.39 586.772L2322.27 599.98C2322.27 603.738 2322.45 606.51 2322.81 608.295 2323.17 610.081 2323.85 611.993 2324.84 614.034L2313.66 614.034C2313.37 613.282 2313.01 612.168 2312.58 610.691 2312.39 610.02 2312.26 609.577 2312.18 609.362 2310.25 611.242 2308.18 612.651 2305.99 613.591 2303.79 614.53 2301.44 615 2298.95 615 2294.56 615 2291.09 613.806 2288.56 611.416 2286.03 609.027 2284.76 606.007 2284.76 602.356 2284.76 599.94 2285.34 597.785 2286.49 595.893 2287.64 594 2289.26 592.55 2291.33 591.544 2293.41 590.537 2296.4 589.658 2300.32 588.906 2305.6 587.913 2309.26 586.987 2311.29 586.128L2311.29 585C2311.29 582.826 2310.76 581.275 2309.68 580.349 2308.61 579.423 2306.59 578.96 2303.61 578.96 2301.6 578.96 2300.04 579.356 2298.91 580.148 2297.78 580.94 2296.87 582.329 2296.18 584.316L2285.93 582.463C2287.08 578.329 2289.06 575.268 2291.88 573.282 2294.69 571.295 2298.87 570.302 2304.42 570.302ZM2244.83 564.987 2244.83 581.738 2251.34 581.738C2256.03 581.738 2259.17 581.429 2260.75 580.812 2262.33 580.195 2263.57 579.228 2264.47 577.913 2265.36 576.597 2265.81 575.067 2265.81 573.322 2265.81 571.174 2265.18 569.403 2263.92 568.007 2262.66 566.611 2261.07 565.738 2259.14 565.389 2257.72 565.121 2254.86 564.987 2250.58 564.987ZM2376.52 555 2387.82 555 2387.82 586.329 2401.05 571.268 2414.95 571.268 2400.36 586.892 2416 614.034 2403.82 614.034 2393.09 594.826 2387.82 600.342 2387.82 614.034 2376.52 614.034ZM2232.93 555 2252.02 555C2259.26 555 2263.98 555.295 2266.17 555.886 2269.55 556.772 2272.38 558.698 2274.66 561.664 2276.93 564.631 2278.07 568.463 2278.07 573.161 2278.07 576.785 2277.42 579.832 2276.1 582.302 2274.79 584.772 2273.12 586.711 2271.1 588.121 2269.08 589.53 2267.02 590.463 2264.93 590.92 2262.09 591.483 2257.97 591.765 2252.59 591.765L2244.83 591.765 2244.83 614.034 2232.93 614.034ZM2148 555 2160.9 555 2175.82 598.691 2190.25 555 2202.87 555 2181.77 614.034 2169.06 614.034Z" fill-rule="evenodd"/><path d="M1879.45 639.797 1879.45 668.141 1899.31 668.141C1907.04 668.141 1911.95 667.924 1914.02 667.49 1917.21 666.911 1919.81 665.502 1921.81 663.26 1923.82 661.018 1924.82 658.018 1924.82 654.258 1924.82 651.076 1924.05 648.377 1922.5 646.16 1920.96 643.942 1918.72 642.327 1915.8 641.315 1912.88 640.303 1906.53 639.797 1896.77 639.797ZM1879.45 597.642 1879.45 622.154 1893.51 622.154C1901.87 622.154 1907.07 622.033 1909.1 621.793 1912.77 621.359 1915.65 620.093 1917.76 617.997 1919.86 615.9 1920.91 613.14 1920.91 609.718 1920.91 606.44 1920 603.777 1918.19 601.728 1916.38 599.679 1913.69 598.438 1910.11 598.004 1907.98 597.763 1901.87 597.642 1891.77 597.642ZM1858 580 1900.47 580C1908.88 580 1915.15 580.349 1919.28 581.048 1923.41 581.747 1927.11 583.205 1930.37 585.423 1933.63 587.64 1936.35 590.593 1938.52 594.28 1940.69 597.968 1941.78 602.102 1941.78 606.681 1941.78 611.646 1940.44 616.201 1937.76 620.346 1935.08 624.492 1931.44 627.601 1926.85 629.674 1933.33 631.554 1938.3 634.759 1941.78 639.291 1945.26 643.822 1947 649.148 1947 655.27 1947 660.091 1945.88 664.779 1943.63 669.334 1941.38 673.889 1938.32 677.528 1934.43 680.252 1930.54 682.975 1925.74 684.65 1920.04 685.277 1916.46 685.663 1907.84 685.904 1894.17 686L1858 686Z" fill="#FFFFFF" fill-rule="evenodd"/><path d="M1973 718 1994.89 718 2010.86 790.125 2030.22 718 2055.65 718 2074.22 791.342 2090.47 718 2112 718 2086.28 823 2063.6 823 2042.5 744.501 2021.48 823 1998.29 823Z" fill-rule="evenodd"/></g></svg>