<svg width="756" height="712" xmlns="http://www.w3.org/2000/svg" xmlns:xlink="http://www.w3.org/1999/xlink" xml:space="preserve" overflow="hidden"><defs><linearGradient x1="2627.12" y1="1578.66" x2="1945.88" y2="1185.35" gradientUnits="userSpaceOnUse" spreadMethod="reflect" id="fill0"><stop offset="0" stop-color="#156082"/><stop offset="0.55" stop-color="#001732"/><stop offset="1" stop-color="#001732"/></linearGradient></defs><g transform="translate(-1909 -1068)"><path d="M1911.5 1086.87C1911.5 1077.83 1918.83 1070.5 1927.87 1070.5L2646.13 1070.5C2655.17 1070.5 2662.5 1077.83 2662.5 1086.87L2662.5 1761.13C2662.5 1770.17 2655.17 1777.5 2646.13 1777.5L1927.87 1777.5C1918.83 1777.5 1911.5 1770.17 1911.5 1761.13Z" stroke="#000000" stroke-width="4.58333" stroke-linecap="round" stroke-linejoin="round" stroke-miterlimit="10" fill="#215F9A" fill-rule="evenodd"/><path d="M1933 1128.5C1933 1107.79 1949.79 1091 1970.5 1091 1991.21 1091 2008 1107.79 2008 1128.5 2008 1149.21 1991.21 1166 1970.5 1166 1949.79 1166 1933 1149.21 1933 1128.5Z" stroke="#BFBFBF" stroke-width="13.75" stroke-linecap="round" stroke-linejoin="round" stroke-miterlimit="10" fill-rule="evenodd"/><path d="M2565 1128.5C2565 1107.79 2581.79 1091 2602.5 1091 2623.21 1091 2640 1107.79 2640 1128.5 2640 1149.21 2623.21 1166 2602.5 1166 2581.79 1166 2565 1149.21 2565 1128.5Z" stroke="#BFBFBF" stroke-width="13.75" stroke-linecap="round" stroke-linejoin="round" stroke-miterlimit="10" fill-rule="evenodd"/><path d="M1933 1717.5C1933 1696.79 1949.79 1680 1970.5 1680 1991.21 1680 2008 1696.79 2008 1717.5 2008 1738.21 1991.21 1755 1970.5 1755 1949.79 1755 1933 1738.21 1933 1717.5Z" stroke="#BFBFBF" stroke-width="13.75" stroke-linecap="round" stroke-linejoin="round" stroke-miterlimit="10" fill-rule="evenodd"/><path d="M2565 1717.5C2565 1696.79 2581.79 1680 2602.5 1680 2623.21 1680 2640 1696.79 2640 1717.5 2640 1738.21 2623.21 1755 2602.5 1755 2581.79 1755 2565 1738.21 2565 1717.5Z" stroke="#BFBFBF" stroke-width="13.75" stroke-linecap="round" stroke-linejoin="round" stroke-miterlimit="10" fill-rule="evenodd"/><path d="M2152 1128.5C2152 1116.63 2161.63 1107 2173.5 1107 2185.37 1107 2195 1116.63 2195 1128.5 2195 1140.37 2185.37 1150 2173.5 1150 2161.63 1150 2152 1140.37 2152 1128.5Z" stroke="#BFBFBF" stroke-width="13.75" stroke-linecap="round" stroke-linejoin="round" stroke-miterlimit="10" fill-rule="evenodd"/><path d="M2228 1128.5C2228 1116.63 2237.63 1107 2249.5 1107 2261.37 1107 2271 1116.63 2271 1128.5 2271 1140.37 2261.37 1150 2249.5 1150 2237.63 1150 2228 1140.37 2228 1128.5Z" stroke="#BFBFBF" stroke-width="13.75" stroke-linecap="round" stroke-linejoin="round" stroke-miterlimit="10" fill-rule="evenodd"/><path d="M2303 1128.5C2303 1116.63 2312.63 1107 2324.5 1107 2336.37 1107 2346 1116.63 2346 1128.5 2346 1140.37 2336.37 1150 2324.5 1150 2312.63 1150 2303 1140.37 2303 1128.5Z" stroke="#BFBFBF" stroke-width="13.75" stroke-linecap="round" stroke-linejoin="round" stroke-miterlimit="10" fill-rule="evenodd"/><path d="M2378 1128.5C2378 1116.63 2387.63 1107 2399.5 1107 2411.37 1107 2421 1116.63 2421 1128.5 2421 1140.37 2411.37 1150 2399.5 1150 2387.63 1150 2378 1140.37 2378 1128.5Z" stroke="#BFBFBF" stroke-width="13.75" stroke-linecap="round" stroke-linejoin="round" stroke-miterlimit="10" fill-rule="evenodd"/><rect x="1928.5" y="1188.5" width="718" height="475" stroke="#000000" stroke-width="4.58333" stroke-linecap="round" stroke-linejoin="round" stroke-miterlimit="10"/><rect x="1938" y="1199" width="697" height="366" fill="url(#fill0)"/><rect x="2115.5" y="1663.5" width="343" height="114" stroke="#000000" stroke-width="4.58333" stroke-linecap="round" stroke-linejoin="round" stroke-miterlimit="10" fill="#6A5334"/><text fill="#B7FCFF" font-family="Arial,Arial_MSFontService,sans-serif" font-weight="700" font-size="220" transform="matrix(1 0 0 1 2089.19 1394)">B/W</text><text fill="#B7FCFF" font-family="Arial,Arial_MSFontService,sans-serif" font-weight="700" font-size="147" transform="matrix(1 0 0 1 2062.59 1532)">V</text><text fill="#B7FCFF" font-family="Arial,Arial_MSFontService,sans-serif" font-weight="700" font-size="147" transform="matrix(1 0 0 1 2152.47 1532)">-</text><text fill="#B7FCFF" font-family="Arial,Arial_MSFontService,sans-serif" font-weight="700" font-size="147" transform="matrix(1 0 0 1 2201.16 1532)">Pack</text></g></svg>