<svg width="763" height="372" xmlns="http://www.w3.org/2000/svg" xmlns:xlink="http://www.w3.org/1999/xlink" xml:space="preserve" overflow="hidden"><g transform="translate(-1988 -1993)"><path d="M1990.5 2029.1C1990.5 2010.54 2005.54 1995.5 2024.1 1995.5L2714.9 1995.5C2733.46 1995.5 2748.5 2010.54 2748.5 2029.1L2748.5 2328.9C2748.5 2347.46 2733.46 2362.5 2714.9 2362.5L2024.1 2362.5C2005.54 2362.5 1990.5 2347.46 1990.5 2328.9Z" stroke="#000000" stroke-width="4.58333" stroke-linecap="round" stroke-linejoin="round" stroke-miterlimit="10" fill="#BE405B" fill-rule="evenodd"/><path d="M2028.44 2019 2306.54 2019C2317.28 2019 2325.98 2029.1 2325.98 2041.56L2325.98 2123.93 2711.56 2123.93C2722.3 2123.93 2731 2134.02 2731 2146.48L2731 2321.44C2731 2333.9 2722.3 2344 2711.56 2344L2028.44 2344C2017.7 2344 2009 2333.9 2009 2321.44L2009 2216.52 2009 2146.48 2009 2041.56C2009 2029.1 2017.7 2019 2028.44 2019Z" fill="#E3D0AF" fill-rule="evenodd"/><rect x="2031" y="2041" width="57.0001" height="57.0001" fill="#262626"/><path d="M2010.5 2263.5 2728.94 2263.5" stroke="#000000" stroke-width="4.58333" stroke-linecap="round" stroke-linejoin="round" stroke-miterlimit="10" fill="none" fill-rule="evenodd"/><path d="M2010.5 2278.5 2728.94 2278.5" stroke="#000000" stroke-width="4.58333" stroke-linecap="round" stroke-linejoin="round" stroke-miterlimit="10" fill="none" fill-rule="evenodd"/><path d="M2124.93 2123.5 2161.56 2123.5C2166.62 2123.5 2170.72 2127.62 2170.72 2132.71L2170.72 2190.41 2223.34 2190.41C2228.4 2190.41 2232.5 2194.53 2232.5 2199.62L2232.5 2236.45C2232.5 2241.53 2228.4 2245.66 2223.34 2245.66L2170.72 2245.66 2170.72 2299.29C2170.72 2304.38 2166.62 2308.5 2161.56 2308.5L2124.93 2308.5C2119.87 2308.5 2115.77 2304.38 2115.77 2299.29L2115.77 2245.66 2057.66 2245.66C2052.6 2245.66 2048.5 2241.53 2048.5 2236.45L2048.5 2199.62C2048.5 2194.53 2052.6 2190.41 2057.66 2190.41L2115.77 2190.41 2115.77 2132.71C2115.77 2127.62 2119.87 2123.5 2124.93 2123.5Z" stroke="#BE405B" stroke-width="6.875" stroke-linecap="round" stroke-linejoin="round" stroke-miterlimit="10" fill="#262626" fill-rule="evenodd"/><path d="M2274 2265C2274 2247.88 2287.88 2234 2305 2234L2442 2234C2459.12 2234 2473 2247.88 2473 2265L2473 2265C2473 2282.12 2459.12 2296 2442 2296L2305 2296C2287.88 2296 2274 2282.12 2274 2265Z" fill="#BE405B" fill-rule="evenodd"/><path d="M2293 2266.5C2293 2256.84 2300.84 2249 2310.5 2249L2349.5 2249C2359.17 2249 2367 2256.84 2367 2266.5L2367 2266.5C2367 2276.17 2359.17 2284 2349.5 2284L2310.5 2284C2300.84 2284 2293 2276.17 2293 2266.5Z" fill="#262626" fill-rule="evenodd"/><path d="M2381 2266.5C2381 2256.84 2388.84 2249 2398.5 2249L2438.5 2249C2448.17 2249 2456 2256.84 2456 2266.5L2456 2266.5C2456 2276.17 2448.17 2284 2438.5 2284L2398.5 2284C2388.84 2284 2381 2276.17 2381 2266.5Z" fill="#262626" fill-rule="evenodd"/><path d="M2509.5 2262.5C2509.5 2241.51 2526.51 2224.5 2547.5 2224.5 2568.49 2224.5 2585.5 2241.51 2585.5 2262.5 2585.5 2283.49 2568.49 2300.5 2547.5 2300.5 2526.51 2300.5 2509.5 2283.49 2509.5 2262.5Z" stroke="#BE405B" stroke-width="6.875" stroke-linecap="round" stroke-linejoin="round" stroke-miterlimit="10" fill="#262626" fill-rule="evenodd"/><path d="M2615.5 2262.5C2615.5 2241.51 2632.29 2224.5 2653 2224.5 2673.71 2224.5 2690.5 2241.51 2690.5 2262.5 2690.5 2283.49 2673.71 2300.5 2653 2300.5 2632.29 2300.5 2615.5 2283.49 2615.5 2262.5Z" stroke="#BE405B" stroke-width="6.875" stroke-linecap="round" stroke-linejoin="round" stroke-miterlimit="10" fill="#262626" fill-rule="evenodd"/><path d="M2514 2181.5C2514 2171.83 2521.83 2164 2531.5 2164L2559.5 2164C2569.17 2164 2577 2171.83 2577 2181.5L2577 2181.5C2577 2191.17 2569.17 2199 2559.5 2199L2531.5 2199C2521.83 2199 2514 2191.17 2514 2181.5Z" fill="#262626" fill-rule="evenodd"/><path d="M2622 2181.5C2622 2171.83 2629.84 2164 2639.5 2164L2667.5 2164C2677.17 2164 2685 2171.83 2685 2181.5L2685 2181.5C2685 2191.17 2677.17 2199 2667.5 2199L2639.5 2199C2629.84 2199 2622 2191.17 2622 2181.5Z" fill="#262626" fill-rule="evenodd"/></g></svg>