<svg width="392" height="368" xmlns="http://www.w3.org/2000/svg" xmlns:xlink="http://www.w3.org/1999/xlink" xml:space="preserve" overflow="hidden"><g transform="translate(-2178 -1392)"><rect x="2184.5" y="1394.5" width="72.9998" height="225" stroke="#000000" stroke-width="4.58333" stroke-linecap="round" stroke-linejoin="round" stroke-miterlimit="10"/><rect x="2415.5" y="1394.5" width="50.9998" height="225" stroke="#000000" stroke-width="4.58333" stroke-linecap="round" stroke-linejoin="round" stroke-miterlimit="10" fill="#E84040"/><rect x="2466.5" y="1394.5" width="52.0002" height="225" stroke="#000000" stroke-width="4.58333" stroke-linecap="round" stroke-linejoin="round" stroke-miterlimit="10" fill="#0FB523"/><rect x="2515.5" y="1394.5" width="52" height="225" stroke="#000000" stroke-width="4.58333" stroke-linecap="round" stroke-linejoin="round" stroke-miterlimit="10" fill="#005CE4"/><path d="M2544.96 1464 2557 1464 2557 1465.72 2557 1543.28 2557 1545 2542.16 1545 2542.16 1543.28 2542.16 1487.97C2536.74 1493.14 2530.36 1496.96 2523 1499.44L2523 1497.71 2523 1485.7 2523 1483.98C2526.87 1482.69 2531.08 1480.24 2535.62 1476.63 2540.16 1473.02 2543.27 1468.81 2544.96 1464Z" fill="#FFFFFF" fill-rule="evenodd"/><path d="M2495.61 1464 2508 1464 2508 1465.72 2508 1543.28 2508 1545 2492.73 1545 2492.73 1543.28 2492.73 1487.97C2487.15 1493.14 2480.57 1496.96 2473 1499.44L2473 1497.71 2473 1485.7 2473 1483.98C2476.99 1482.69 2481.31 1480.24 2485.99 1476.63 2490.66 1473.02 2493.87 1468.81 2495.61 1464Z" fill="#FFFFFF" fill-rule="evenodd"/><path d="M2444.61 1464 2457 1464 2457 1465.72 2457 1543.28 2457 1545 2441.73 1545 2441.73 1543.28 2441.73 1487.97C2436.15 1493.14 2429.57 1496.96 2422 1499.44L2422 1497.71 2422 1485.7 2422 1483.98C2425.99 1482.69 2430.31 1480.24 2434.99 1476.63 2439.66 1473.02 2442.87 1468.81 2444.61 1464Z" fill="#FFFFFF" fill-rule="evenodd"/><rect x="2259.5" y="1394.5" width="50.9998" height="225" stroke="#000000" stroke-width="4.58333" stroke-linecap="round" stroke-linejoin="round" stroke-miterlimit="10" fill="#E84040"/><rect x="2312.5" y="1394.5" width="51.0002" height="225" stroke="#000000" stroke-width="4.58333" stroke-linecap="round" stroke-linejoin="round" stroke-miterlimit="10" fill="#0FB523"/><rect x="2363.5" y="1394.5" width="52" height="225" stroke="#000000" stroke-width="4.58333" stroke-linecap="round" stroke-linejoin="round" stroke-miterlimit="10" fill="#005CE4"/><path d="M2392.61 1464 2405 1464 2405 1465.72 2405 1543.28 2405 1545 2389.73 1545 2389.73 1543.28 2389.73 1487.97C2384.15 1493.14 2377.57 1496.96 2370 1499.44L2370 1497.71 2370 1485.7 2370 1483.98C2373.99 1482.69 2378.32 1480.24 2382.99 1476.63 2387.66 1473.02 2390.87 1468.81 2392.61 1464Z" fill="#FFFFFF" fill-rule="evenodd"/><path d="M2341.61 1464 2354 1464 2354 1465.72 2354 1543.28 2354 1545 2338.73 1545 2338.73 1543.28 2338.73 1487.97C2333.15 1493.14 2326.57 1496.96 2319 1499.44L2319 1497.71 2319 1485.7 2319 1483.98C2322.99 1482.69 2327.31 1480.24 2331.99 1476.63 2336.66 1473.02 2339.87 1468.81 2341.61 1464Z" fill="#FFFFFF" fill-rule="evenodd"/><path d="M2288.61 1464 2301 1464 2301 1465.72 2301 1543.28 2301 1545 2285.73 1545 2285.73 1543.28 2285.73 1487.97C2280.15 1493.14 2273.57 1496.96 2266 1499.44L2266 1497.71 2266 1485.7 2266 1483.98C2269.99 1482.69 2274.31 1480.24 2278.99 1476.63 2283.66 1473.02 2286.87 1468.81 2288.61 1464Z" fill="#FFFFFF" fill-rule="evenodd"/><path d="M2178 1481.75 2219.5 1481.75 2219.5 1458 2261 1505.5 2219.5 1553 2219.5 1529.25 2178 1529.25Z" fill="#FFFFFF" fill-rule="evenodd"/></g></svg>