<svg width="1230" height="750" xmlns="http://www.w3.org/2000/svg" xmlns:xlink="http://www.w3.org/1999/xlink" xml:space="preserve" overflow="hidden"><defs><linearGradient x1="520" y1="1111" x2="1395" y2="1986" gradientUnits="userSpaceOnUse" spreadMethod="reflect" id="fill0"><stop offset="0" stop-color="#959595"/><stop offset="0.5" stop-color="#FFFFFF"/><stop offset="1" stop-color="#D9D9D9"/></linearGradient></defs><g transform="translate(-342 -1173)"><path d="M344.5 1204.82C344.5 1188.63 357.628 1175.5 373.823 1175.5L1540.18 1175.5C1556.37 1175.5 1569.5 1188.63 1569.5 1204.82L1569.5 1891.18C1569.5 1907.37 1556.37 1920.5 1540.18 1920.5L373.823 1920.5C357.628 1920.5 344.5 1907.37 344.5 1891.18Z" stroke="#000000" stroke-width="4.58333" stroke-linecap="round" stroke-linejoin="round" stroke-miterlimit="10" fill="#215F9A" fill-rule="evenodd"/><rect x="431.5" y="1199.5" width="1052" height="698" stroke="#000000" stroke-width="4.58333" stroke-linecap="round" stroke-linejoin="round" stroke-miterlimit="10" fill="url(#fill0)"/><rect x="475" y="1241" width="964" height="614"/><rect x="505" y="1266" width="60.0002" height="563" fill="#FF0000"/><rect x="565" y="1266" width="60.9998" height="563" fill="#DA2400"/><rect x="626" y="1266" width="60.0002" height="563" fill="#B64800"/><rect x="686" y="1266" width="59.9998" height="563" fill="#916D00"/><rect x="746" y="1266" width="60.0002" height="563" fill="#6D9100"/><rect x="806" y="1266" width="59.9998" height="563" fill="#48B600"/><rect x="866" y="1266" width="60.0002" height="563" fill="#24DA00"/><rect x="926" y="1266" width="59.9998" height="563" fill="#00FF00"/><rect x="986" y="1266" width="61.0002" height="563" fill="#00DA00"/><rect x="1047" y="1266" width="59.9998" height="563" fill="#00B655"/><rect x="1107" y="1266" width="60.0001" height="563" fill="#009155"/><rect x="1167" y="1266" width="59.9998" height="563" fill="#006DAA"/><rect x="1227" y="1266" width="60.0001" height="563" fill="#0048AA"/><rect x="1287" y="1266" width="60.0001" height="563" fill="#0024FF"/><rect x="1347" y="1266" width="59.9998" height="563" fill="#0000FF"/><text font-family="Arial,Arial_MSFontService,sans-serif" font-weight="700" font-size="202" transform="matrix(1 0 0 1 563.896 1630)">RGB332</text><text fill="#FFFFFF" font-family="Arial,Arial_MSFontService,sans-serif" font-weight="700" font-size="202" transform="matrix(1 0 0 1 563.896 1608)">RGB332</text><path d="M1506 1331.5C1506 1319.63 1515.63 1310 1527.5 1310 1539.37 1310 1549 1319.63 1549 1331.5 1549 1343.37 1539.37 1353 1527.5 1353 1515.63 1353 1506 1343.37 1506 1331.5Z" stroke="#BFBFBF" stroke-width="13.75" stroke-linecap="round" stroke-linejoin="round" stroke-miterlimit="10" fill-rule="evenodd"/><path d="M1506 1403.5C1506 1391.63 1515.63 1382 1527.5 1382 1539.37 1382 1549 1391.63 1549 1403.5 1549 1415.37 1539.37 1425 1527.5 1425 1515.63 1425 1506 1415.37 1506 1403.5Z" stroke="#BFBFBF" stroke-width="13.75" stroke-linecap="round" stroke-linejoin="round" stroke-miterlimit="10" fill-rule="evenodd"/><path d="M1506 1475.5C1506 1463.63 1515.63 1454 1527.5 1454 1539.37 1454 1549 1463.63 1549 1475.5 1549 1487.37 1539.37 1497 1527.5 1497 1515.63 1497 1506 1487.37 1506 1475.5Z" stroke="#BFBFBF" stroke-width="13.75" stroke-linecap="round" stroke-linejoin="round" stroke-miterlimit="10" fill-rule="evenodd"/><path d="M1506 1547.5C1506 1535.63 1515.63 1526 1527.5 1526 1539.37 1526 1549 1535.63 1549 1547.5 1549 1559.37 1539.37 1569 1527.5 1569 1515.63 1569 1506 1559.37 1506 1547.5Z" stroke="#BFBFBF" stroke-width="13.75" stroke-linecap="round" stroke-linejoin="round" stroke-miterlimit="10" fill-rule="evenodd"/><path d="M1506 1619.5C1506 1607.63 1515.63 1598 1527.5 1598 1539.37 1598 1549 1607.63 1549 1619.5 1549 1631.37 1539.37 1641 1527.5 1641 1515.63 1641 1506 1631.37 1506 1619.5Z" stroke="#BFBFBF" stroke-width="13.75" stroke-linecap="round" stroke-linejoin="round" stroke-miterlimit="10" fill-rule="evenodd"/><path d="M1506 1691.5C1506 1679.63 1515.63 1670 1527.5 1670 1539.37 1670 1549 1679.63 1549 1691.5 1549 1703.37 1539.37 1713 1527.5 1713 1515.63 1713 1506 1703.37 1506 1691.5Z" stroke="#BFBFBF" stroke-width="13.75" stroke-linecap="round" stroke-linejoin="round" stroke-miterlimit="10" fill-rule="evenodd"/><path d="M1506 1763.5C1506 1751.63 1515.63 1742 1527.5 1742 1539.37 1742 1549 1751.63 1549 1763.5 1549 1775.37 1539.37 1785 1527.5 1785 1515.63 1785 1506 1775.37 1506 1763.5Z" stroke="#BFBFBF" stroke-width="13.75" stroke-linecap="round" stroke-linejoin="round" stroke-miterlimit="10" fill-rule="evenodd"/></g></svg>