<svg width="369" height="368" xmlns="http://www.w3.org/2000/svg" xmlns:xlink="http://www.w3.org/1999/xlink" xml:space="preserve" overflow="hidden"><g transform="translate(-1208 -581)"><rect x="1210.5" y="583.5" width="138" height="225" stroke="#000000" stroke-width="4.58333" stroke-linecap="round" stroke-linejoin="round" stroke-miterlimit="10" fill="#E84040"/><rect x="1348.5" y="583.5" width="137" height="225" stroke="#000000" stroke-width="4.58333" stroke-linecap="round" stroke-linejoin="round" stroke-miterlimit="10" fill="#0FB523"/><rect x="1485.5" y="583.5" width="89" height="225" stroke="#000000" stroke-width="4.58333" stroke-linecap="round" stroke-linejoin="round" stroke-miterlimit="10" fill="#005CE4"/><path d="M54.279 13.3641 54.279 33.4105 42.6479 33.4105C35.106 33.4105 30.3969 33.0872 28.5202 32.4405 26.6438 31.7938 25.1743 30.68 24.1123 29.0996 23.0499 27.5187 22.5189 25.5428 22.5189 23.1719 22.5189 20.5131 23.218 18.3667 24.6165 16.7322 26.0154 15.0974 27.9892 14.0648 30.5386 13.6335 31.8133 13.4539 35.6371 13.3641 42.0106 13.3641ZM69.9998 0 36.9118 0C28.5912 0 22.5453 0.709321 18.7744 2.12833 15.0034 3.54733 11.9851 6.07141 9.71907 9.69985 7.45301 13.3283 6.31998 17.4778 6.31998 22.1479 6.31998 28.0756 8.03719 32.9706 11.4716 36.8326 14.9064 40.6945 20.0402 43.1285 26.874 44.1343 23.4749 46.1461 20.6686 48.3555 18.4557 50.7626 16.2428 53.1694 13.2598 57.4445 9.50674 63.588L0 79.0001 18.8011 79.0001 30.1668 61.8094C34.2032 55.6663 36.9649 51.7953 38.452 50.1967 39.939 48.5981 41.5149 47.5024 43.1789 46.9093 44.843 46.3166 47.4809 46.0204 51.0923 46.0204L54.279 46.0204 54.279 79.0001 69.9998 79.0001Z" fill="#FFFFFF" fill-rule="evenodd" transform="matrix(-1 0 0 1 1316 607)"/><path d="M34.2369 0C24.546 0 16.9764 2.03916 11.5276 6.11783 6.07882 10.1961 2.57342 15.8333 1.01141 23.0285L16.6659 25.9669C17.7664 22.1202 19.8339 19.0834 22.8688 16.8572 25.9041 14.631 29.6932 13.5177 34.2369 13.5177 41.1235 13.5177 46.5988 15.7083 50.6634 20.0896 54.7276 24.471 56.7597 30.9719 56.7597 39.592 56.7597 48.8888 54.7012 55.8614 50.5833 60.5098 46.4657 65.1582 41.0702 67.4825 34.3968 67.4825 31.0953 67.4825 27.7853 66.8323 24.4663 65.5323 21.1473 64.232 18.2987 62.656 15.9203 60.8035L15.9203 50.8655 33.9707 50.8655 33.9707 37.6684 0 37.6684 0 68.8715C3.30112 72.0774 8.08446 74.9002 14.3497 77.3404 20.6149 79.7802 26.9599 81.0001 33.385 81.0001 41.5493 81.0001 48.6667 79.2816 54.7366 75.8441 60.8064 72.407 65.368 67.4914 68.4208 61.0975 71.4736 54.7036 72.9999 47.7489 72.9999 40.2328 72.9999 32.0758 71.2962 24.8271 67.8885 18.4867 64.4807 12.1463 59.4931 7.28424 52.9263 3.90025 47.9211 1.29996 41.6913 0 34.2369 0Z" fill="#FFFFFF" fill-rule="evenodd" transform="matrix(-1 0 0 1 1453 606)"/><path d="M50.0913 44.5652 50.0913 65.6895 35.3648 65.6895C29.6319 65.6895 25.995 65.528 24.4545 65.2047 22.0894 64.7735 20.1635 63.7227 18.6768 62.052 17.1897 60.3817 16.4461 58.1452 16.4461 55.343 16.4461 52.9721 17.0196 50.96 18.1662 49.3074 19.3127 47.6549 20.9699 46.4513 23.1378 45.6971 25.3053 44.9425 30.0082 44.5652 37.246 44.5652ZM50.0913 13.1487 50.0913 31.4165 39.6644 31.4165C33.4657 31.4165 29.6139 31.3267 28.1091 31.1471 25.3862 30.8238 23.245 29.8809 21.6864 28.3182 20.1278 26.7554 19.3485 24.6984 19.3485 22.1479 19.3485 19.7049 20.0205 17.72 21.3639 16.1931 22.7077 14.6665 24.7051 13.7414 27.3568 13.4181 28.9332 13.2385 33.4657 13.1487 40.9544 13.1487ZM66 0 34.505 0C28.2705 0 23.6213 0.260338 20.5579 0.781376 17.4945 1.30205 14.7531 2.38903 12.3347 4.04157 9.9162 5.69412 7.90074 7.8945 6.28831 10.6427 4.67588 13.3909 3.86984 16.4715 3.86984 19.8845 3.86984 23.585 4.86402 26.9799 6.85275 30.0696 8.84112 33.1592 11.5377 35.4762 14.9413 37.0212 10.1401 38.4221 6.44937 40.8111 3.86984 44.1883 1.28995 47.5651 0 51.535 0 56.0976 0 59.6902 0.833121 63.1839 2.49936 66.5788 4.16524 69.9737 6.44071 72.6861 9.32503 74.7159 12.2094 76.7457 15.7654 77.9942 19.9935 78.4609 22.6449 78.7484 29.0408 78.928 39.1809 79.0001L66 79.0001Z" fill="#FFFFFF" fill-rule="evenodd" transform="matrix(-1 0 0 1 1564 607)"/><path d="M26.7475 0C19.3797 0 13.4715 2.35122 9.02262 7.05403 5.35647 10.9019 3.52375 15.2481 3.52375 20.0935 3.52375 26.9694 7.27851 32.4561 14.7884 36.5531 10.304 37.5151 6.71782 39.6706 4.03062 43.0193 1.34342 46.3684 0 50.412 0 55.1503 0 62.0262 2.50927 67.8871 7.52782 72.7324 12.546 77.5774 18.7925 80.0001 26.2668 80.0001 33.3498 80.0001 39.2225 77.9606 43.8852 73.8815 48.5475 69.802 51.2527 64.4669 51.9999 57.8757L37.4784 56.1123C37.0156 59.8176 35.7702 62.65 33.7412 64.6094 31.7126 66.5689 29.2568 67.5485 26.3737 67.5485 23.2772 67.5485 20.67 66.3728 18.5525 64.0216 16.4346 61.67 15.3756 58.4994 15.3756 54.509 15.3756 50.7326 16.3901 47.7401 18.419 45.5311 20.4476 43.3224 22.9214 42.2179 25.84 42.2179 27.762 42.2179 30.0575 42.592 32.7271 43.34L31.0719 31.1024C27.0144 31.209 23.9179 30.3275 21.7824 28.457 19.6469 26.5866 18.579 24.1015 18.579 21.0019 18.579 18.3656 19.3621 16.2636 20.9283 14.6959 22.4941 13.1285 24.5762 12.3446 27.1744 12.3446 29.7371 12.3446 31.9261 13.2351 33.7412 15.0165 35.5564 16.7979 36.6598 19.3987 37.0515 22.8189L50.8789 20.4676C49.9179 15.7293 48.4675 11.9439 46.5279 9.11153 44.5879 6.27914 41.8832 4.05252 38.4129 2.4313 34.9426 0.810432 31.054 0 26.7475 0Z" fill="#FFFFFF" fill-rule="evenodd" transform="matrix(-1 0 0 1 1307 700)"/><path d="M25.0202 0C17.2363 0 11.1202 2.09297 6.67217 6.27926 2.22418 10.4652 0 15.6709 0 21.8968 0 25.4387 0.636667 28.8111 1.91036 32.0133 3.1837 35.2155 5.20144 38.5695 7.96358 42.076 9.79296 44.4016 13.0931 47.7469 17.8639 52.1121 22.6348 56.4769 25.6572 59.3751 26.9306 60.8063 28.2039 62.2376 29.2354 63.6328 30.0242 64.9923L0 64.9923 0 79.0001 52.9999 79.0001C52.4262 73.7045 50.7042 68.6867 47.8347 63.9458 44.9648 59.2052 39.2969 52.917 30.8315 45.0813 24.0158 38.7487 19.8368 34.455 18.2945 32.2012 16.2139 29.088 15.1737 26.0113 15.1737 22.97 15.1737 19.6069 16.0794 17.0217 17.891 15.2147 19.7023 13.4081 22.2045 12.5048 25.3969 12.5048 28.5535 12.5048 31.0647 13.4528 32.9299 15.3489 34.7951 17.2453 35.8714 20.3938 36.1584 24.7946L51.2244 23.292C50.3274 14.9912 47.5118 9.03394 42.7767 5.42029 38.0417 1.80664 32.123 0 25.0202 0Z" fill="#FFFFFF" fill-rule="evenodd" transform="matrix(-1 0 0 1 1557 700)"/><path d="M26.7477 0C19.3798 0 13.4716 2.35122 9.02269 7.05403 5.3565 10.9019 3.52377 15.2481 3.52377 20.0935 3.52377 26.9694 7.27856 32.4561 14.7885 36.5531 10.3041 37.5151 6.71787 39.6706 4.03065 43.0193 1.34343 46.3684 0 50.412 0 55.1503 0 62.0262 2.50929 67.8871 7.52787 72.7324 12.5461 77.5774 18.7926 80.0001 26.267 80.0001 33.3501 80.0001 39.2228 77.9606 43.8855 73.8815 48.5479 69.802 51.253 64.4669 52.0003 57.8757L37.4787 56.1123C37.0159 59.8176 35.7704 62.65 33.7414 64.6094 31.7128 66.5689 29.257 67.5485 26.3739 67.5485 23.2774 67.5485 20.6702 66.3728 18.5526 64.0216 16.4347 61.67 15.3757 58.4994 15.3757 54.509 15.3757 50.7326 16.3902 47.7401 18.4192 45.5311 20.4478 43.3224 22.9215 42.2179 25.8401 42.2179 27.7622 42.2179 30.0577 42.592 32.7273 43.34L31.0722 31.1024C27.0146 31.209 23.9181 30.3275 21.7826 28.457 19.6471 26.5866 18.5792 24.1015 18.5792 21.0019 18.5792 18.3656 19.3623 16.2636 20.9285 14.6959 22.4943 13.1285 24.5763 12.3446 27.1746 12.3446 29.7373 12.3446 31.9263 13.2351 33.7414 15.0165 35.5566 16.7979 36.66 19.3987 37.0518 22.8189L50.8792 20.4676C49.9182 15.7293 48.4679 11.9439 46.5282 9.11153 44.5883 6.27914 41.8835 4.05252 38.4131 2.4313 34.9428 0.810432 31.0542 0 26.7477 0Z" fill="#FFFFFF" fill-rule="evenodd" transform="matrix(-1 0 0 1 1446 700)"/></g></svg>