<svg width="1230" height="803" xmlns="http://www.w3.org/2000/svg" xmlns:xlink="http://www.w3.org/1999/xlink" xml:space="preserve" overflow="hidden"><defs><linearGradient x1="1996.25" y1="1460.75" x2="2871.75" y2="2336.25" gradientUnits="userSpaceOnUse" spreadMethod="reflect" id="fill0"><stop offset="0" stop-color="#959595"/><stop offset="0.5" stop-color="#FFFFFF"/><stop offset="1" stop-color="#D9D9D9"/></linearGradient></defs><g transform="translate(-1818 -1524)"><path d="M1820.5 1555.78C1820.5 1539.61 1833.61 1526.5 1849.78 1526.5L3016.22 1526.5C3032.39 1526.5 3045.5 1539.61 3045.5 1555.78L3045.5 2241.22C3045.5 2257.39 3032.39 2270.5 3016.22 2270.5L1849.78 2270.5C1833.61 2270.5 1820.5 2257.39 1820.5 2241.22Z" stroke="#000000" stroke-width="4.58333" stroke-linecap="round" stroke-linejoin="round" stroke-miterlimit="10" fill="#215F9A" fill-rule="evenodd"/><rect x="1907.5" y="1549.5" width="1053" height="698" stroke="#000000" stroke-width="4.58333" stroke-linecap="round" stroke-linejoin="round" stroke-miterlimit="10" fill="url(#fill0)"/><rect x="1952" y="1591" width="963" height="614"/><rect x="1982" y="1617" width="59.9998" height="563" fill="#FF0000"/><rect x="2042" y="1617" width="60.0001" height="563" fill="#DA2400"/><rect x="2102" y="1617" width="59.9998" height="563" fill="#B64800"/><rect x="2162" y="1617" width="60.0002" height="563" fill="#916D00"/><rect x="2222" y="1617" width="60.9998" height="563" fill="#6D9100"/><rect x="2283" y="1617" width="60.0002" height="563" fill="#48B600"/><rect x="2343" y="1617" width="60.0002" height="563" fill="#24DA00"/><rect x="2403" y="1617" width="59.9998" height="563" fill="#00FF00"/><rect x="2463" y="1617" width="60.0002" height="563" fill="#00DA00"/><rect x="2523" y="1617" width="59.9998" height="563" fill="#00B655"/><rect x="2583" y="1617" width="60.0002" height="563" fill="#009155"/><rect x="2643" y="1617" width="60.9998" height="563" fill="#006DAA"/><rect x="2704" y="1617" width="60.0002" height="563" fill="#0048AA"/><rect x="2764" y="1617" width="59.9998" height="563" fill="#0024FF"/><rect x="2824" y="1617" width="60.0002" height="563" fill="#0000FF"/><path d="M2982 1682.5C2982 1670.63 2991.63 1661 3003.5 1661 3015.37 1661 3025 1670.63 3025 1682.5 3025 1694.37 3015.37 1704 3003.5 1704 2991.63 1704 2982 1694.37 2982 1682.5Z" stroke="#BFBFBF" stroke-width="13.75" stroke-linecap="round" stroke-linejoin="round" stroke-miterlimit="10" fill-rule="evenodd"/><path d="M2982 1754.5C2982 1742.63 2991.63 1733 3003.5 1733 3015.37 1733 3025 1742.63 3025 1754.5 3025 1766.37 3015.37 1776 3003.5 1776 2991.63 1776 2982 1766.37 2982 1754.5Z" stroke="#BFBFBF" stroke-width="13.75" stroke-linecap="round" stroke-linejoin="round" stroke-miterlimit="10" fill-rule="evenodd"/><path d="M2982 1826.5C2982 1814.63 2991.63 1805 3003.5 1805 3015.37 1805 3025 1814.63 3025 1826.5 3025 1838.37 3015.37 1848 3003.5 1848 2991.63 1848 2982 1838.37 2982 1826.5Z" stroke="#BFBFBF" stroke-width="13.75" stroke-linecap="round" stroke-linejoin="round" stroke-miterlimit="10" fill-rule="evenodd"/><path d="M2982 1898.5C2982 1886.63 2991.63 1877 3003.5 1877 3015.37 1877 3025 1886.63 3025 1898.5 3025 1910.37 3015.37 1920 3003.5 1920 2991.63 1920 2982 1910.37 2982 1898.5Z" stroke="#BFBFBF" stroke-width="13.75" stroke-linecap="round" stroke-linejoin="round" stroke-miterlimit="10" fill-rule="evenodd"/><path d="M2982 1970.5C2982 1958.63 2991.63 1949 3003.5 1949 3015.37 1949 3025 1958.63 3025 1970.5 3025 1982.37 3015.37 1992 3003.5 1992 2991.63 1992 2982 1982.37 2982 1970.5Z" stroke="#BFBFBF" stroke-width="13.75" stroke-linecap="round" stroke-linejoin="round" stroke-miterlimit="10" fill-rule="evenodd"/><path d="M2982 2042.5C2982 2030.63 2991.63 2021 3003.5 2021 3015.37 2021 3025 2030.63 3025 2042.5 3025 2054.37 3015.37 2064 3003.5 2064 2991.63 2064 2982 2054.37 2982 2042.5Z" stroke="#BFBFBF" stroke-width="13.75" stroke-linecap="round" stroke-linejoin="round" stroke-miterlimit="10" fill-rule="evenodd"/><path d="M2982 2114.5C2982 2102.63 2991.63 2093 3003.5 2093 3015.37 2093 3025 2102.63 3025 2114.5 3025 2126.37 3015.37 2136 3003.5 2136 2991.63 2136 2982 2126.37 2982 2114.5Z" stroke="#BFBFBF" stroke-width="13.75" stroke-linecap="round" stroke-linejoin="round" stroke-miterlimit="10" fill-rule="evenodd"/><text font-family="Arial,Arial_MSFontService,sans-serif" font-weight="700" font-size="330" transform="matrix(1 0 0 1 2157.87 2053)">332</text><text fill="#FFFFFF" font-family="Arial,Arial_MSFontService,sans-serif" font-weight="700" font-size="330" transform="matrix(1 0 0 1 2157.87 2003)">332</text></g></svg>