<svg width="673" height="366" xmlns="http://www.w3.org/2000/svg" xmlns:xlink="http://www.w3.org/1999/xlink" xml:space="preserve" overflow="hidden"><defs><clipPath id="clip0"><rect x="2229" y="1818" width="673" height="366"/></clipPath></defs><g clip-path="url(#clip0)" transform="translate(-2229 -1818)"><rect x="2567.5" y="1820.5" width="111" height="225" stroke="#000000" stroke-width="4.58333" stroke-linecap="round" stroke-linejoin="round" stroke-miterlimit="10" fill="#E84040"/><rect x="2679.5" y="1820.5" width="111" height="225" stroke="#000000" stroke-width="4.58333" stroke-linecap="round" stroke-linejoin="round" stroke-miterlimit="10" fill="#0FB523"/><rect x="2787.5" y="1820.5" width="112" height="225" stroke="#000000" stroke-width="4.58333" stroke-linecap="round" stroke-linejoin="round" stroke-miterlimit="10" fill="#005CE4"/><path d="M55.0545 13.3641 55.0545 33.4105 43.2572 33.4105C35.6076 33.4105 30.8312 33.0872 28.9277 32.4405 27.0245 31.7938 25.5339 30.68 24.4568 29.0996 23.3792 27.5187 22.8406 25.5428 22.8406 23.1719 22.8406 20.5131 23.5497 18.3667 24.9682 16.7322 26.3871 15.0974 28.3891 14.0648 30.9749 13.6335 32.2678 13.4539 36.1462 13.3641 42.6107 13.3641ZM70.9998 0 37.4391 0C28.9997 0 22.8674 0.709321 19.0426 2.12833 15.2178 3.54733 12.1563 6.07141 9.85792 9.69985 7.55949 13.3283 6.41027 17.4778 6.41027 22.1479 6.41027 28.0756 8.15201 32.9706 11.6355 36.8326 15.1193 40.6945 20.3265 43.1285 27.2579 44.1343 23.8103 46.1461 20.9639 48.3555 18.7194 50.7626 16.4749 53.1694 13.4493 57.4445 9.64255 63.588L0 79.0001 19.0697 79.0001 30.5977 61.8094C34.6918 55.6663 37.493 51.7953 39.0013 50.1967 40.5096 48.5981 42.108 47.5024 43.7958 46.9093 45.4836 46.3166 48.1592 46.0204 51.8222 46.0204L55.0545 46.0204 55.0545 79.0001 70.9998 79.0001Z" fill="#FFFFFF" fill-rule="evenodd" transform="matrix(-1 0 0 1 2659 1843)"/><path d="M34.7059 0C24.8823 0 17.209 2.03915 11.6855 6.1178 6.1621 10.1961 2.60867 15.8332 1.02526 23.0284L16.8942 25.9668C18.0097 22.1201 20.1056 19.0833 23.1821 16.8571 26.259 14.6309 30.1 13.5176 34.7059 13.5176 41.6869 13.5176 47.2372 15.7083 51.3574 20.0896 55.4773 24.4709 57.5373 30.9717 57.5373 39.5918 57.5373 48.8886 55.4505 55.8612 51.2762 60.5096 47.1023 65.158 41.6329 67.4822 34.868 67.4822 31.5213 67.4822 28.1659 66.832 24.8014 65.532 21.437 64.2317 18.5494 62.6557 16.1384 60.8032L16.1384 50.8653 34.4361 50.8653 34.4361 37.6682 0 37.6682 0 68.8711C3.34634 72.0771 8.19521 74.8999 14.5463 77.3401 20.8973 79.7799 27.3292 80.9998 33.8424 80.9998 42.1185 80.9998 49.3334 79.2812 55.4864 75.8437 61.6394 72.4066 66.2635 67.4911 69.3581 61.0973 72.4528 54.7034 73.9999 47.7487 73.9999 40.2326 73.9999 32.0757 72.2729 24.827 68.8185 18.4866 65.364 12.1462 60.3081 7.28421 53.6513 3.90023 48.5776 1.29996 42.2624 0 34.7059 0Z" fill="#FFFFFF" fill-rule="evenodd" transform="matrix(-1 0 0 1 2771 1842)"/><path d="M49.3325 44.5652 49.3325 65.6895 34.8292 65.6895C29.1831 65.6895 25.6013 65.528 24.0841 65.2047 21.7549 64.7735 19.8581 63.7227 18.3939 62.052 16.9293 60.3817 16.197 58.1452 16.197 55.343 16.197 52.9721 16.7618 50.96 17.891 49.3074 19.0202 47.6549 20.6523 46.4513 22.7873 45.6971 24.922 44.9425 29.5537 44.5652 36.6818 44.5652ZM49.3325 13.1487 49.3325 31.4165 39.0636 31.4165C32.9588 31.4165 29.1653 31.3267 27.6833 31.1471 25.0017 30.8238 22.893 29.8809 21.3579 28.3182 19.8229 26.7554 19.0554 24.6984 19.0554 22.1479 19.0554 19.7049 19.7173 17.72 21.0403 16.1931 22.3637 14.6665 24.3309 13.7414 26.9425 13.4181 28.4949 13.2385 32.9588 13.1487 40.3341 13.1487ZM65.0003 0 33.9824 0C27.8423 0 23.2636 0.260338 20.2465 0.781376 17.2295 1.30205 14.5297 2.38903 12.1478 4.04157 9.766 5.69412 7.78108 7.8945 6.19306 10.6427 4.60505 13.3909 3.81123 16.4715 3.81123 19.8845 3.81123 23.585 4.79035 26.9799 6.74896 30.0696 8.70721 33.1592 11.3629 35.4762 14.715 37.0212 9.98651 38.4221 6.35169 40.8111 3.81123 44.1883 1.27041 47.5651 0 51.535 0 56.0976 0 59.6902 0.820502 63.1839 2.46151 66.5788 4.10215 69.9737 6.34315 72.6861 9.18379 74.7159 12.0244 76.7457 15.5266 77.9942 19.6906 78.4609 22.3019 78.7484 28.6009 78.928 38.5874 79.0001L65.0003 79.0001Z" fill="#FFFFFF" fill-rule="evenodd" transform="matrix(-1 0 0 1 2876 1843)"/><path d="M2229 2062 2844.69 2062 2901 2123 2844.69 2184 2229 2184Z" fill="#FFC000" fill-rule="evenodd"/><path d="M2517.84 2128.57 2517.84 2149.69 2532.51 2149.69C2538.22 2149.69 2541.84 2149.53 2543.38 2149.2 2545.73 2148.77 2547.65 2147.72 2549.13 2146.05 2550.61 2144.38 2551.35 2142.15 2551.35 2139.34 2551.35 2136.97 2550.78 2134.96 2549.64 2133.31 2548.5 2131.66 2546.85 2130.45 2544.69 2129.7 2542.53 2128.94 2537.85 2128.57 2530.64 2128.57ZM2517.84 2097.15 2517.84 2115.42 2528.23 2115.42C2534.4 2115.42 2538.24 2115.33 2539.74 2115.15 2542.45 2114.82 2544.58 2113.88 2546.14 2112.32 2547.69 2110.76 2548.46 2108.7 2548.46 2106.15 2548.46 2103.71 2547.79 2101.72 2546.46 2100.19 2545.12 2098.67 2543.13 2097.74 2540.49 2097.42 2538.92 2097.24 2534.4 2097.15 2526.94 2097.15ZM2577.32 2084 2635.5 2084 2635.5 2097.36 2593.16 2097.36 2593.16 2114.88 2632.56 2114.88 2632.56 2128.19 2593.16 2128.19 2593.16 2149.69 2637 2149.69 2637 2163 2577.32 2163ZM2502 2084 2533.37 2084C2539.58 2084 2544.21 2084.26 2547.26 2084.78 2550.31 2085.3 2553.04 2086.39 2555.45 2088.04 2557.86 2089.69 2559.86 2091.89 2561.47 2094.64 2563.08 2097.39 2563.88 2100.47 2563.88 2103.89 2563.88 2107.59 2562.89 2110.98 2560.91 2114.07 2558.93 2117.16 2556.24 2119.48 2552.85 2121.02 2557.63 2122.42 2561.31 2124.81 2563.88 2128.19 2566.45 2131.57 2567.73 2135.53 2567.73 2140.1 2567.73 2143.69 2566.9 2147.18 2565.24 2150.58 2563.59 2153.97 2561.32 2156.69 2558.45 2158.72 2555.57 2160.75 2552.03 2161.99 2547.82 2162.46 2545.18 2162.75 2538.81 2162.93 2528.71 2163L2502 2163Z" fill-rule="evenodd"/><path d="M2625.88 1963.39 2608.04 1990.48 2625.88 1990.48ZM2627.79 1940 2640.33 1940 2640.33 1940.1 2640.33 1990.48 2650 1990.48 2650 1990.58 2650 2003.88 2650 2003.99 2640.33 2003.99 2640.33 2019.9 2640.33 2020 2625.88 2020 2625.88 2019.9 2625.88 2003.99 2594 2003.99 2594 2003.88 2594 1990.64 2594 1990.53Z" fill="#FFFFFF" fill-rule="evenodd"/><path d="M2739.45 1963.39 2721.29 1990.48 2739.45 1990.48ZM2741.39 1940 2754.16 1940 2754.16 1940.1 2754.16 1990.48 2764 1990.48 2764 1990.58 2764 2003.88 2764 2003.99 2754.16 2003.99 2754.16 2019.9 2754.16 2020 2739.45 2020 2739.45 2019.9 2739.45 2003.99 2707 2003.99 2707 2003.88 2707 1990.64 2707 1990.53Z" fill="#FFFFFF" fill-rule="evenodd"/><path d="M2847.45 1963.39 2829.29 1990.48 2847.45 1990.48ZM2849.39 1940 2862.16 1940 2862.16 1940.1 2862.16 1990.48 2872 1990.48 2872 1990.58 2872 2003.88 2872 2003.99 2862.16 2003.99 2862.16 2019.9 2862.16 2020 2847.45 2020 2847.45 2019.9 2847.45 2003.99 2815 2003.99 2815 2003.88 2815 1990.64 2815 1990.53Z" fill="#FFFFFF" fill-rule="evenodd"/><rect x="2232.5" y="1820.5" width="112" height="225" stroke="#000000" stroke-width="4.58333" stroke-linecap="round" stroke-linejoin="round" stroke-miterlimit="10" fill="#E84040"/><rect x="2344.5" y="1820.5" width="112" height="225" stroke="#000000" stroke-width="4.58333" stroke-linecap="round" stroke-linejoin="round" stroke-miterlimit="10" fill="#0FB523"/><rect x="2452.5" y="1820.5" width="112" height="225" stroke="#000000" stroke-width="4.58333" stroke-linecap="round" stroke-linejoin="round" stroke-miterlimit="10" fill="#005CE4"/><path d="M55.0548 13.3641 55.0548 33.4105 43.2574 33.4105C35.6078 33.4105 30.8313 33.0872 28.9278 32.4405 27.0246 31.7938 25.5341 30.68 24.4569 29.0996 23.3793 27.5187 22.8407 25.5428 22.8407 23.1719 22.8407 20.5131 23.5498 18.3667 24.9683 16.7322 26.3872 15.0974 28.3892 14.0648 30.975 13.6335 32.268 13.4539 36.1464 13.3641 42.611 13.3641ZM71.0002 0 37.4393 0C28.9998 0 22.8675 0.709321 19.0427 2.12833 15.2179 3.54733 12.1564 6.07141 9.85797 9.69985 7.55952 13.3283 6.4103 17.4778 6.4103 22.1479 6.4103 28.0756 8.15205 32.9706 11.6355 36.8326 15.1194 40.6945 20.3266 43.1285 27.2581 44.1343 23.8104 46.1461 20.964 48.3555 18.7195 50.7626 16.4749 53.1694 13.4493 57.4445 9.6426 63.588L0 79.0001 19.0698 79.0001 30.5979 61.8094C34.692 55.6663 37.4932 51.7953 39.0015 50.1967 40.5098 48.5981 42.1082 47.5024 43.796 46.9093 45.4838 46.3166 48.1594 46.0204 51.8225 46.0204L55.0548 46.0204 55.0548 79.0001 71.0002 79.0001Z" fill="#FFFFFF" fill-rule="evenodd" transform="matrix(-1 0 0 1 2324 1843)"/><path d="M34.237 0C24.5462 0 16.9765 2.03915 11.5277 6.1178 6.07885 10.1961 2.57343 15.8332 1.01141 23.0284L16.6659 25.9668C17.7664 22.1201 19.834 19.0833 22.8689 16.8571 25.9043 14.6309 29.6934 13.5176 34.237 13.5176 41.1237 13.5176 46.599 15.7083 50.6636 20.0896 54.7279 24.4709 56.76 30.9717 56.76 39.5918 56.76 48.8886 54.7014 55.8612 50.5835 60.5096 46.4659 65.158 41.0704 67.4822 34.397 67.4822 31.0955 67.4822 27.7854 66.832 24.4664 65.532 21.1474 64.2317 18.2988 62.6557 15.9204 60.8032L15.9204 50.8653 33.9709 50.8653 33.9709 37.6682 0 37.6682 0 68.8711C3.30113 72.0771 8.0845 74.8999 14.3498 77.3401 20.615 79.7799 26.96 80.9998 33.3852 80.9998 41.5495 80.9998 48.6669 79.2812 54.7368 75.8437 60.8068 72.4066 65.3683 67.4911 68.4212 61.0973 71.474 54.7034 73.0002 47.7487 73.0002 40.2326 73.0002 32.0757 71.2965 24.827 67.8888 18.4866 64.481 12.1462 59.4934 7.28421 52.9265 3.90023 47.9213 1.29996 41.6915 0 34.237 0Z" fill="#FFFFFF" fill-rule="evenodd" transform="matrix(-1 0 0 1 2436 1842)"/><path d="M50.0913 44.5652 50.0913 65.6895 35.3648 65.6895C29.6319 65.6895 25.995 65.528 24.4545 65.2047 22.0894 64.7735 20.1635 63.7227 18.6768 62.052 17.1897 60.3817 16.4461 58.1452 16.4461 55.343 16.4461 52.9721 17.0196 50.96 18.1662 49.3074 19.3127 47.6549 20.9699 46.4513 23.1378 45.6971 25.3053 44.9425 30.0082 44.5652 37.246 44.5652ZM50.0913 13.1487 50.0913 31.4165 39.6644 31.4165C33.4657 31.4165 29.6139 31.3267 28.1091 31.1471 25.3862 30.8238 23.245 29.8809 21.6864 28.3182 20.1278 26.7554 19.3485 24.6984 19.3485 22.1479 19.3485 19.7049 20.0205 17.72 21.3639 16.1931 22.7077 14.6665 24.7051 13.7414 27.3568 13.4181 28.9332 13.2385 33.4657 13.1487 40.9544 13.1487ZM66 0 34.505 0C28.2705 0 23.6213 0.260338 20.5579 0.781376 17.4945 1.30205 14.7531 2.38903 12.3347 4.04157 9.9162 5.69412 7.90074 7.8945 6.28831 10.6427 4.67588 13.3909 3.86984 16.4715 3.86984 19.8845 3.86984 23.585 4.86402 26.9799 6.85275 30.0696 8.84112 33.1592 11.5377 35.4762 14.9413 37.0212 10.1401 38.4221 6.44937 40.8111 3.86984 44.1883 1.28995 47.5651 0 51.535 0 56.0976 0 59.6902 0.833121 63.1839 2.49936 66.5788 4.16524 69.9737 6.44071 72.6861 9.32503 74.7159 12.2094 76.7457 15.7654 77.9942 19.9935 78.4609 22.6449 78.7484 29.0408 78.928 39.1809 79.0001L66 79.0001Z" fill="#FFFFFF" fill-rule="evenodd" transform="matrix(-1 0 0 1 2542 1843)"/><path d="M2291.45 1963.39 2273.29 1990.48 2291.45 1990.48ZM2293.39 1940 2306.16 1940 2306.16 1940.1 2306.16 1990.48 2316 1990.48 2316 1990.58 2316 2003.88 2316 2003.99 2306.16 2003.99 2306.16 2019.9 2306.16 2020 2291.45 2020 2291.45 2019.9 2291.45 2003.99 2259 2003.99 2259 2003.88 2259 1990.64 2259 1990.53Z" fill="#FFFFFF" fill-rule="evenodd"/><path d="M2404.45 1963.39 2386.29 1990.48 2404.45 1990.48ZM2406.39 1940 2419.16 1940 2419.16 1940.1 2419.16 1990.48 2429 1990.48 2429 1990.58 2429 2003.88 2429 2003.99 2419.16 2003.99 2419.16 2019.9 2419.16 2020 2404.45 2020 2404.45 2019.9 2404.45 2003.99 2372 2003.99 2372 2003.88 2372 1990.64 2372 1990.53Z" fill="#FFFFFF" fill-rule="evenodd"/><path d="M2512.45 1963.39 2494.29 1990.48 2512.45 1990.48ZM2514.39 1940 2527.16 1940 2527.16 1940.1 2527.16 1990.48 2537 1990.48 2537 1990.58 2537 2003.88 2537 2003.99 2527.16 2003.99 2527.16 2019.9 2527.16 2020 2512.45 2020 2512.45 2019.9 2512.45 2003.99 2480 2003.99 2480 2003.88 2480 1990.64 2480 1990.53Z" fill="#FFFFFF" fill-rule="evenodd"/></g></svg>