<svg width="1230" height="749" xmlns="http://www.w3.org/2000/svg" xmlns:xlink="http://www.w3.org/1999/xlink" xml:space="preserve" overflow="hidden"><defs><linearGradient x1="520" y1="127" x2="1395" y2="1002" gradientUnits="userSpaceOnUse" spreadMethod="reflect" id="fill0"><stop offset="0" stop-color="#959595"/><stop offset="0.5" stop-color="#FFFFFF"/><stop offset="1" stop-color="#D9D9D9"/></linearGradient><linearGradient x1="505" y1="564" x2="1407" y2="564" gradientUnits="userSpaceOnUse" spreadMethod="reflect" id="fill1"><stop offset="0" stop-color="#FF0000"/><stop offset="0.5" stop-color="#00FF00"/><stop offset="1" stop-color="#0000FF"/></linearGradient></defs><g transform="translate(-342 -190)"><path d="M344.5 221.784C344.5 205.611 357.611 192.5 373.784 192.5L1540.22 192.5C1556.39 192.5 1569.5 205.611 1569.5 221.784L1569.5 907.216C1569.5 923.389 1556.39 936.5 1540.22 936.5L373.784 936.5C357.611 936.5 344.5 923.389 344.5 907.216Z" stroke="#000000" stroke-width="4.58333" stroke-linecap="round" stroke-linejoin="round" stroke-miterlimit="10" fill="#215F9A" fill-rule="evenodd"/><rect x="431.5" y="215.5" width="1052" height="698" stroke="#000000" stroke-width="4.58333" stroke-linecap="round" stroke-linejoin="round" stroke-miterlimit="10" fill="url(#fill0)"/><rect x="475" y="257" width="964" height="614"/><rect x="505" y="282" width="902" height="564" fill="url(#fill1)"/><text font-family="Arial,Arial_MSFontService,sans-serif" font-weight="700" font-size="202" transform="matrix(1 0 0 1 563.896 646)">RGB565</text><text fill="#FFFFFF" font-family="Arial,Arial_MSFontService,sans-serif" font-weight="700" font-size="202" transform="matrix(1 0 0 1 563.896 624)">RGB565</text><path d="M1506 333.5C1506 321.626 1515.63 312 1527.5 312 1539.37 312 1549 321.626 1549 333.5 1549 345.374 1539.37 355 1527.5 355 1515.63 355 1506 345.374 1506 333.5Z" stroke="#BFBFBF" stroke-width="13.75" stroke-linecap="round" stroke-linejoin="round" stroke-miterlimit="10" fill-rule="evenodd"/><path d="M1506 405.5C1506 393.626 1515.63 384 1527.5 384 1539.37 384 1549 393.626 1549 405.5 1549 417.374 1539.37 427 1527.5 427 1515.63 427 1506 417.374 1506 405.5Z" stroke="#BFBFBF" stroke-width="13.75" stroke-linecap="round" stroke-linejoin="round" stroke-miterlimit="10" fill-rule="evenodd"/><path d="M1506 477.5C1506 465.626 1515.63 456 1527.5 456 1539.37 456 1549 465.626 1549 477.5 1549 489.374 1539.37 499 1527.5 499 1515.63 499 1506 489.374 1506 477.5Z" stroke="#BFBFBF" stroke-width="13.75" stroke-linecap="round" stroke-linejoin="round" stroke-miterlimit="10" fill-rule="evenodd"/><path d="M1506 549.5C1506 537.626 1515.63 528 1527.5 528 1539.37 528 1549 537.626 1549 549.5 1549 561.374 1539.37 571 1527.5 571 1515.63 571 1506 561.374 1506 549.5Z" stroke="#BFBFBF" stroke-width="13.75" stroke-linecap="round" stroke-linejoin="round" stroke-miterlimit="10" fill-rule="evenodd"/><path d="M1506 621.5C1506 609.626 1515.63 600 1527.5 600 1539.37 600 1549 609.626 1549 621.5 1549 633.374 1539.37 643 1527.5 643 1515.63 643 1506 633.374 1506 621.5Z" stroke="#BFBFBF" stroke-width="13.75" stroke-linecap="round" stroke-linejoin="round" stroke-miterlimit="10" fill-rule="evenodd"/><path d="M1506 693C1506 680.85 1515.63 671 1527.5 671 1539.37 671 1549 680.85 1549 693 1549 705.15 1539.37 715 1527.5 715 1515.63 715 1506 705.15 1506 693Z" stroke="#BFBFBF" stroke-width="13.75" stroke-linecap="round" stroke-linejoin="round" stroke-miterlimit="10" fill-rule="evenodd"/><path d="M1506 764.5C1506 752.626 1515.63 743 1527.5 743 1539.37 743 1549 752.626 1549 764.5 1549 776.374 1539.37 786 1527.5 786 1515.63 786 1506 776.374 1506 764.5Z" stroke="#BFBFBF" stroke-width="13.75" stroke-linecap="round" stroke-linejoin="round" stroke-miterlimit="10" fill-rule="evenodd"/></g></svg>