<svg width="462" height="368" xmlns="http://www.w3.org/2000/svg" xmlns:xlink="http://www.w3.org/1999/xlink" xml:space="preserve" overflow="hidden"><g transform="translate(-1115 -122)"><rect x="1117.5" y="124.5" width="135" height="225" stroke="#000000" stroke-width="4.58333" stroke-linecap="round" stroke-linejoin="round" stroke-miterlimit="10" fill="#E84040"/><rect x="1252.5" y="124.5" width="186" height="225" stroke="#000000" stroke-width="4.58333" stroke-linecap="round" stroke-linejoin="round" stroke-miterlimit="10" fill="#0FB523"/><rect x="1438.5" y="124.5" width="136" height="225" stroke="#000000" stroke-width="4.58333" stroke-linecap="round" stroke-linejoin="round" stroke-miterlimit="10" fill="#005CE4"/><path d="M1117 368 1517.69 368 1574 429 1517.69 490 1117 490Z" fill="#FFC000" fill-rule="evenodd"/><path d="M1289.96 433.565 1289.96 454.69 1304.74 454.69C1310.49 454.69 1314.14 454.528 1315.68 454.205 1318.06 453.774 1319.99 452.723 1321.48 451.052 1322.97 449.382 1323.72 447.145 1323.72 444.343 1323.72 441.972 1323.14 439.96 1321.99 438.308 1320.84 436.655 1319.18 435.452 1317.01 434.697 1314.83 433.943 1310.11 433.565 1302.85 433.565ZM1289.96 402.149 1289.96 420.417 1300.42 420.417C1306.64 420.417 1310.51 420.327 1312.02 420.147 1314.75 419.824 1316.9 418.881 1318.46 417.318 1320.03 415.755 1320.81 413.699 1320.81 411.148 1320.81 408.705 1320.13 406.72 1318.79 405.194 1317.44 403.667 1315.43 402.741 1312.77 402.418 1311.19 402.239 1306.64 402.149 1299.13 402.149ZM1349.87 389 1408.49 389 1408.49 402.364 1365.84 402.364 1365.84 419.878 1405.52 419.878 1405.52 433.188 1365.84 433.188 1365.84 454.69 1410 454.69 1410 468 1349.87 468ZM1274 389 1305.6 389C1311.86 389 1316.52 389.26 1319.59 389.781 1322.67 390.303 1325.42 391.389 1327.84 393.042 1330.27 394.694 1332.29 396.895 1333.91 399.643 1335.53 402.391 1336.34 405.472 1336.34 408.885 1336.34 412.585 1335.34 415.98 1333.34 419.07 1331.35 422.159 1328.64 424.477 1325.23 426.021 1330.05 427.422 1333.75 429.811 1336.34 433.188 1338.93 436.565 1340.22 440.535 1340.22 445.097 1340.22 448.69 1339.38 452.184 1337.71 455.579 1336.04 458.973 1333.76 461.686 1330.86 463.716 1327.97 465.746 1324.4 466.994 1320.16 467.461 1317.5 467.749 1311.08 467.928 1300.91 468L1274 468Z" fill-rule="evenodd"/><path d="M55.0545 13.3641 55.0545 33.4105 43.2572 33.4105C35.6076 33.4105 30.8312 33.0872 28.9277 32.4405 27.0245 31.7938 25.5339 30.68 24.4568 29.0996 23.3792 27.5187 22.8406 25.5428 22.8406 23.1719 22.8406 20.5131 23.5497 18.3667 24.9682 16.7322 26.3871 15.0974 28.3891 14.0648 30.9749 13.6335 32.2678 13.4539 36.1462 13.3641 42.6107 13.3641ZM70.9998 0 37.4391 0C28.9997 0 22.8674 0.709321 19.0426 2.12833 15.2178 3.54733 12.1563 6.07141 9.85792 9.69985 7.55949 13.3283 6.41027 17.4778 6.41027 22.1479 6.41027 28.0756 8.15201 32.9706 11.6355 36.8326 15.1193 40.6945 20.3265 43.1285 27.2579 44.1343 23.8103 46.1461 20.9639 48.3555 18.7194 50.7626 16.4749 53.1694 13.4493 57.4445 9.64255 63.588L0 79.0001 19.0697 79.0001 30.5977 61.8094C34.6918 55.6663 37.493 51.7953 39.0013 50.1967 40.5096 48.5981 42.108 47.5024 43.7958 46.9093 45.4836 46.3166 48.1592 46.0204 51.8222 46.0204L55.0545 46.0204 55.0545 79.0001 70.9998 79.0001Z" fill="#FFFFFF" fill-rule="evenodd" transform="matrix(-1 0 0 1 1220 151)"/><path d="M34.7059 0C24.8823 0 17.209 2.03916 11.6855 6.11783 6.1621 10.1961 2.60867 15.8333 1.02526 23.0285L16.8942 25.9669C18.0097 22.1202 20.1056 19.0834 23.1821 16.8572 26.259 14.631 30.1 13.5177 34.7059 13.5177 41.6869 13.5177 47.2372 15.7083 51.3574 20.0896 55.4773 24.471 57.5373 30.9719 57.5373 39.592 57.5373 48.8888 55.4505 55.8614 51.2762 60.5098 47.1023 65.1582 41.6329 67.4825 34.868 67.4825 31.5213 67.4825 28.1659 66.8323 24.8014 65.5323 21.437 64.232 18.5494 62.656 16.1384 60.8035L16.1384 50.8655 34.4361 50.8655 34.4361 37.6684 0 37.6684 0 68.8715C3.34634 72.0774 8.19521 74.9002 14.5463 77.3404 20.8973 79.7802 27.3292 81.0001 33.8424 81.0001 42.1185 81.0001 49.3334 79.2816 55.4864 75.8441 61.6394 72.407 66.2635 67.4914 69.3581 61.0975 72.4528 54.7036 73.9999 47.7489 73.9999 40.2328 73.9999 32.0758 72.2729 24.8271 68.8185 18.4867 65.364 12.1463 60.3081 7.28424 53.6513 3.90025 48.5776 1.29996 42.2624 0 34.7059 0Z" fill="#FFFFFF" fill-rule="evenodd" transform="matrix(-1 0 0 1 1381 150)"/><path d="M50.0913 44.5652 50.0913 65.6895 35.3648 65.6895C29.6319 65.6895 25.995 65.528 24.4545 65.2047 22.0894 64.7735 20.1635 63.7227 18.6768 62.052 17.1897 60.3817 16.4461 58.1452 16.4461 55.343 16.4461 52.9721 17.0196 50.96 18.1662 49.3074 19.3127 47.6549 20.9699 46.4513 23.1378 45.6971 25.3053 44.9425 30.0082 44.5652 37.246 44.5652ZM50.0913 13.1487 50.0913 31.4165 39.6644 31.4165C33.4657 31.4165 29.6139 31.3267 28.1091 31.1471 25.3862 30.8238 23.245 29.8809 21.6864 28.3182 20.1278 26.7554 19.3485 24.6984 19.3485 22.1479 19.3485 19.7049 20.0205 17.72 21.3639 16.1931 22.7077 14.6665 24.7051 13.7414 27.3568 13.4181 28.9332 13.2385 33.4657 13.1487 40.9544 13.1487ZM66 0 34.505 0C28.2705 0 23.6213 0.260338 20.5579 0.781376 17.4945 1.30205 14.7531 2.38903 12.3347 4.04157 9.9162 5.69412 7.90074 7.8945 6.28831 10.6427 4.67588 13.3909 3.86984 16.4715 3.86984 19.8845 3.86984 23.585 4.86402 26.9799 6.85275 30.0696 8.84112 33.1592 11.5377 35.4762 14.9413 37.0212 10.1401 38.4221 6.44937 40.8111 3.86984 44.1883 1.28995 47.5651 0 51.535 0 56.0976 0 59.6902 0.833121 63.1839 2.49936 66.5788 4.16524 69.9737 6.44071 72.6861 9.32503 74.7159 12.2094 76.7457 15.7654 77.9942 19.9935 78.4609 22.6449 78.7484 29.0408 78.928 39.1809 79.0001L66 79.0001Z" fill="#FFFFFF" fill-rule="evenodd" transform="matrix(-1 0 0 1 1542 151)"/><path d="M43.4318 0 3.49396 0 3.49396 14.1245 31.9827 14.1245 34.348 27.497C30.9794 25.8143 27.5392 24.9728 24.0276 24.9728 17.3264 24.9728 11.6463 27.4075 6.98792 32.2768 2.32955 37.1462 0 43.4654 0 51.2346 0 57.7152 1.88134 63.4975 5.64401 68.5815 10.7687 75.5272 17.8819 79.0001 26.9838 79.0001 34.2581 79.0001 40.1889 77.0489 44.7757 73.1463 49.3626 69.2437 52.1039 63.9987 52.9999 57.4106L37.9492 55.8532C37.5191 59.2546 36.2471 61.9487 34.1328 63.9359 32.0185 65.9231 29.5817 66.9165 26.8227 66.9165 23.6689 66.9165 20.9995 65.6366 18.8134 63.0767 16.6276 60.5168 15.5347 56.6589 15.5347 51.5031 15.5347 46.6698 16.6185 43.0447 18.7866 40.6281 20.9547 38.2111 23.7766 37.0029 27.2525 37.0029 31.5887 37.0029 35.4767 38.9183 38.9168 42.7492L51.1724 40.977Z" fill="#FFFFFF" fill-rule="evenodd" transform="matrix(-1 0 0 1 1209 245)"/><path d="M43.4321 0 3.49399 0 3.49399 14.1245 31.9829 14.1245 34.3483 27.497C30.9796 25.8143 27.5394 24.9728 24.0277 24.9728 17.3265 24.9728 11.6464 27.4075 6.98797 32.2768 2.32956 37.1462 0 43.4654 0 51.2346 0 57.7152 1.88135 63.4975 5.64405 68.5815 10.7687 75.5272 17.882 79.0001 26.9839 79.0001 34.2583 79.0001 40.1891 77.0489 44.776 73.1463 49.3629 69.2437 52.1042 63.9987 53.0003 57.4106L37.9495 55.8532C37.5193 59.2546 36.2473 61.9487 34.133 63.9359 32.0187 65.9231 29.5819 66.9165 26.8229 66.9165 23.6691 66.9165 20.9997 65.6366 18.8135 63.0767 16.6277 60.5168 15.5348 56.6589 15.5348 51.5031 15.5348 46.6698 16.6186 43.0447 18.7868 40.6281 20.9549 38.2111 23.7767 37.0029 27.2527 37.0029 31.5889 37.0029 35.4769 38.9183 38.9171 42.7492L51.1728 40.977Z" fill="#FFFFFF" fill-rule="evenodd" transform="matrix(-1 0 0 1 1534 245)"/><path d="M25.0176 39.3368C27.8856 39.3368 30.3114 40.4821 32.2942 42.7725 34.2771 45.0633 35.2686 48.4448 35.2686 52.9181 35.2686 57.86 34.1533 61.6745 31.9224 64.362 29.6914 67.0491 27.1422 68.3928 24.2739 68.3928 21.5119 68.3928 19.2103 67.2927 17.3688 65.0924 15.5276 62.8921 14.6068 59.2848 14.6068 54.2706 14.6068 49.1123 15.5982 45.3338 17.5815 42.935 19.5643 40.5362 22.0429 39.3368 25.0176 39.3368ZM23.5301 0C17.6168 0 12.7213 1.68621 8.84373 5.05899 4.96648 8.43176 2.49644 13.3286 1.43434 19.7495L15.8816 21.3728C16.2356 18.3425 17.1564 16.1062 18.6436 14.6632 20.1307 13.2203 22.0608 12.499 24.433 12.499 27.5847 12.499 30.2493 13.9419 32.427 16.8275 34.6047 19.7135 35.977 25.7196 36.5434 34.8457 32.8253 30.3728 28.2043 28.1362 22.6803 28.1362 16.4483 28.1362 11.11 30.5532 6.66599 35.3867 2.222 40.2207 0 46.4609 0 54.1084 0 62.2246 2.33727 68.7357 7.01146 73.6416 11.6856 78.5472 17.6875 81.0001 25.0176 81.0001 32.8785 81.0001 39.3407 77.8891 44.4046 71.6664 49.4681 65.444 51.9999 55.2446 51.9999 41.0681 51.9999 26.531 49.3618 16.0521 44.0859 9.63116 38.8096 3.21027 31.9577 0 23.5301 0Z" fill="#FFFFFF" fill-rule="evenodd" transform="matrix(-1 0 0 1 1374 243)"/></g></svg>