<svg width="1230" height="792" xmlns="http://www.w3.org/2000/svg" xmlns:xlink="http://www.w3.org/1999/xlink" xml:space="preserve" overflow="hidden"><defs><linearGradient x1="1996.25" y1="114.75" x2="2871.75" y2="990.25" gradientUnits="userSpaceOnUse" spreadMethod="reflect" id="fill0"><stop offset="0" stop-color="#959595"/><stop offset="0.5" stop-color="#FFFFFF"/><stop offset="1" stop-color="#D9D9D9"/></linearGradient><linearGradient x1="1982" y1="551.5" x2="2884" y2="551.5" gradientUnits="userSpaceOnUse" spreadMethod="reflect" id="fill1"><stop offset="0" stop-color="#FF0000"/><stop offset="0.5" stop-color="#00FF00"/><stop offset="1" stop-color="#0000FF"/></linearGradient></defs><g transform="translate(-1818 -177)"><path d="M1820.5 208.823C1820.5 192.628 1833.63 179.5 1849.82 179.5L3016.18 179.5C3032.37 179.5 3045.5 192.628 3045.5 208.823L3045.5 895.177C3045.5 911.372 3032.37 924.5 3016.18 924.5L1849.82 924.5C1833.63 924.5 1820.5 911.372 1820.5 895.177Z" stroke="#000000" stroke-width="4.58333" stroke-linecap="round" stroke-linejoin="round" stroke-miterlimit="10" fill="#215F9A" fill-rule="evenodd"/><rect x="1907.5" y="203.5" width="1053" height="698" stroke="#000000" stroke-width="4.58333" stroke-linecap="round" stroke-linejoin="round" stroke-miterlimit="10" fill="url(#fill0)"/><rect x="1952" y="245" width="963" height="614"/><rect x="1982" y="270" width="902" height="563" fill="url(#fill1)"/><text font-family="Arial,Arial_MSFontService,sans-serif" font-weight="700" font-size="330" transform="matrix(1 0 0 1 2157.87 696)">565</text><text fill="#FFFFFF" font-family="Arial,Arial_MSFontService,sans-serif" font-weight="700" font-size="330" transform="matrix(1 0 0 1 2157.87 646)">565</text><path d="M2982 321.5C2982 309.626 2991.63 300 3003.5 300 3015.37 300 3025 309.626 3025 321.5 3025 333.374 3015.37 343 3003.5 343 2991.63 343 2982 333.374 2982 321.5Z" stroke="#BFBFBF" stroke-width="13.75" stroke-linecap="round" stroke-linejoin="round" stroke-miterlimit="10" fill-rule="evenodd"/><path d="M2982 393C2982 380.85 2991.63 371 3003.5 371 3015.37 371 3025 380.85 3025 393 3025 405.15 3015.37 415 3003.5 415 2991.63 415 2982 405.15 2982 393Z" stroke="#BFBFBF" stroke-width="13.75" stroke-linecap="round" stroke-linejoin="round" stroke-miterlimit="10" fill-rule="evenodd"/><path d="M2982 464.5C2982 452.626 2991.63 443 3003.5 443 3015.37 443 3025 452.626 3025 464.5 3025 476.374 3015.37 486 3003.5 486 2991.63 486 2982 476.374 2982 464.5Z" stroke="#BFBFBF" stroke-width="13.75" stroke-linecap="round" stroke-linejoin="round" stroke-miterlimit="10" fill-rule="evenodd"/><path d="M2982 536.5C2982 524.626 2991.63 515 3003.5 515 3015.37 515 3025 524.626 3025 536.5 3025 548.374 3015.37 558 3003.5 558 2991.63 558 2982 548.374 2982 536.5Z" stroke="#BFBFBF" stroke-width="13.75" stroke-linecap="round" stroke-linejoin="round" stroke-miterlimit="10" fill-rule="evenodd"/><path d="M2982 608.5C2982 596.626 2991.63 587 3003.5 587 3015.37 587 3025 596.626 3025 608.5 3025 620.374 3015.37 630 3003.5 630 2991.63 630 2982 620.374 2982 608.5Z" stroke="#BFBFBF" stroke-width="13.75" stroke-linecap="round" stroke-linejoin="round" stroke-miterlimit="10" fill-rule="evenodd"/><path d="M2982 680.5C2982 668.626 2991.63 659 3003.5 659 3015.37 659 3025 668.626 3025 680.5 3025 692.374 3015.37 702 3003.5 702 2991.63 702 2982 692.374 2982 680.5Z" stroke="#BFBFBF" stroke-width="13.75" stroke-linecap="round" stroke-linejoin="round" stroke-miterlimit="10" fill-rule="evenodd"/><path d="M2982 752.5C2982 740.626 2991.63 731 3003.5 731 3015.37 731 3025 740.626 3025 752.5 3025 764.374 3015.37 774 3003.5 774 2991.63 774 2982 764.374 2982 752.5Z" stroke="#BFBFBF" stroke-width="13.75" stroke-linecap="round" stroke-linejoin="round" stroke-miterlimit="10" fill-rule="evenodd"/></g></svg>