<svg width="560" height="366" xmlns="http://www.w3.org/2000/svg" xmlns:xlink="http://www.w3.org/1999/xlink" xml:space="preserve" overflow="hidden"><defs><clipPath id="clip0"><rect x="1237" y="1818" width="560" height="366"/></clipPath></defs><g clip-path="url(#clip0)" transform="translate(-1237 -1818)"><rect x="1728.5" y="1820.5" width="66" height="225" stroke="#000000" stroke-width="4.58333" stroke-linecap="round" stroke-linejoin="round" stroke-miterlimit="10"/><rect x="1359.5" y="1820.5" width="65" height="225" stroke="#000000" stroke-width="4.58333" stroke-linecap="round" stroke-linejoin="round" stroke-miterlimit="10"/><rect x="1545.5" y="1820.5" width="65" height="225" stroke="#000000" stroke-width="4.58333" stroke-linecap="round" stroke-linejoin="round" stroke-miterlimit="10"/><rect x="1239.5" y="1820.5" width="120" height="225" stroke="#000000" stroke-width="4.58333" stroke-linecap="round" stroke-linejoin="round" stroke-miterlimit="10" fill="#E84040"/><rect x="1424.5" y="1820.5" width="121" height="225" stroke="#000000" stroke-width="4.58333" stroke-linecap="round" stroke-linejoin="round" stroke-miterlimit="10" fill="#0FB523"/><rect x="1610.5" y="1820.5" width="120" height="225" stroke="#000000" stroke-width="4.58333" stroke-linecap="round" stroke-linejoin="round" stroke-miterlimit="10" fill="#005CE4"/><path d="M55.0545 13.3641 55.0545 33.4105 43.2572 33.4105C35.6076 33.4105 30.8312 33.0872 28.9277 32.4405 27.0245 31.7938 25.5339 30.68 24.4568 29.0996 23.3792 27.5187 22.8406 25.5428 22.8406 23.1719 22.8406 20.5131 23.5497 18.3667 24.9682 16.7322 26.3871 15.0974 28.3891 14.0648 30.9749 13.6335 32.2678 13.4539 36.1462 13.3641 42.6107 13.3641ZM70.9998 0 37.4391 0C28.9997 0 22.8674 0.709321 19.0426 2.12833 15.2178 3.54733 12.1563 6.07141 9.85792 9.69985 7.55949 13.3283 6.41027 17.4778 6.41027 22.1479 6.41027 28.0756 8.15201 32.9706 11.6355 36.8326 15.1193 40.6945 20.3265 43.1285 27.2579 44.1343 23.8103 46.1461 20.9639 48.3555 18.7194 50.7626 16.4749 53.1694 13.4493 57.4445 9.64255 63.588L0 79.0001 19.0697 79.0001 30.5977 61.8094C34.6918 55.6663 37.493 51.7953 39.0013 50.1967 40.5096 48.5981 42.108 47.5024 43.7958 46.9093 45.4836 46.3166 48.1592 46.0204 51.8222 46.0204L55.0545 46.0204 55.0545 79.0001 70.9998 79.0001Z" fill="#FFFFFF" fill-rule="evenodd" transform="matrix(-1 0 0 1 1339 1843)"/><path d="M34.7059 0C24.8823 0 17.209 2.06432 11.6855 6.19333 6.1621 10.322 2.60867 16.0287 1.02526 23.3127L16.8942 26.2874C18.0097 22.3932 20.1056 19.3189 23.1821 17.0652 26.259 14.8115 30.1 13.6845 34.7059 13.6845 41.6869 13.6845 47.2372 15.9022 51.3574 20.3376 55.4773 24.773 57.5373 31.3541 57.5373 40.0806 57.5373 49.4922 55.4505 56.5508 51.2762 61.2566 47.1023 65.9624 41.6329 68.3153 34.868 68.3153 31.5213 68.3153 28.1659 67.6571 24.8014 66.3411 21.437 65.0247 18.5494 63.4292 16.1384 61.5539L16.1384 51.4932 34.4361 51.4932 34.4361 38.1333 0 38.1333 0 69.7214C3.34634 72.9669 8.19521 75.8246 14.5463 78.2949 20.8973 80.7648 27.3292 81.9998 33.8424 81.9998 42.1185 81.9998 49.3334 80.26 55.4864 76.7801 61.6394 73.3006 66.2635 68.3244 69.3581 61.8516 72.4528 55.3787 73.9999 48.3382 73.9999 40.7293 73.9999 32.4717 72.2729 25.1335 68.8185 18.7148 65.364 12.2962 60.3081 7.37414 53.6513 3.94838 48.5776 1.31601 42.2624 0 34.7059 0Z" fill="#FFFFFF" fill-rule="evenodd" transform="matrix(-1 0 0 1 1520 1842)"/><path d="M50.0913 44.5652 50.0913 65.6895 35.3648 65.6895C29.6319 65.6895 25.995 65.528 24.4545 65.2047 22.0894 64.7735 20.1635 63.7227 18.6768 62.052 17.1897 60.3817 16.4461 58.1452 16.4461 55.343 16.4461 52.9721 17.0196 50.96 18.1662 49.3074 19.3127 47.6549 20.9699 46.4513 23.1378 45.6971 25.3053 44.9425 30.0082 44.5652 37.246 44.5652ZM50.0913 13.1487 50.0913 31.4165 39.6644 31.4165C33.4657 31.4165 29.6139 31.3267 28.1091 31.1471 25.3862 30.8238 23.245 29.8809 21.6864 28.3182 20.1278 26.7554 19.3485 24.6984 19.3485 22.1479 19.3485 19.7049 20.0205 17.72 21.3639 16.1931 22.7077 14.6665 24.7051 13.7414 27.3568 13.4181 28.9332 13.2385 33.4657 13.1487 40.9544 13.1487ZM66 0 34.505 0C28.2705 0 23.6213 0.260338 20.5579 0.781376 17.4945 1.30205 14.7531 2.38903 12.3347 4.04157 9.9162 5.69412 7.90074 7.8945 6.28831 10.6427 4.67588 13.3909 3.86984 16.4715 3.86984 19.8845 3.86984 23.585 4.86402 26.9799 6.85275 30.0696 8.84112 33.1592 11.5377 35.4762 14.9413 37.0212 10.1401 38.4221 6.44937 40.8111 3.86984 44.1883 1.28995 47.5651 0 51.535 0 56.0976 0 59.6902 0.833121 63.1839 2.49936 66.5788 4.16524 69.9737 6.44071 72.6861 9.32503 74.7159 12.2094 76.7457 15.7654 77.9942 19.9935 78.4609 22.6449 78.7484 29.0408 78.928 39.1809 79.0001L66 79.0001Z" fill="#FFFFFF" fill-rule="evenodd" transform="matrix(-1 0 0 1 1706 1843)"/><path d="M25.4989 38.851C28.4221 38.851 30.8945 39.9821 32.9155 42.2443 34.9366 44.5068 35.9471 47.8465 35.9471 52.2646 35.9471 57.1454 34.8103 60.9128 32.5365 63.5671 30.2627 66.221 27.6643 67.5482 24.7408 67.5482 21.9257 67.5482 19.5799 66.4616 17.7029 64.2885 15.8263 62.1154 14.8878 58.5526 14.8878 53.6003 14.8878 48.5058 15.8983 44.7739 17.9197 42.4048 19.9407 40.0356 22.467 38.851 25.4989 38.851ZM23.9828 0C17.9557 0 12.9661 1.66538 9.01387 4.99651 5.06202 8.32763 2.54447 13.164 1.46193 19.5056L16.1871 21.1088C16.548 18.116 17.4865 15.9073 19.0022 14.4821 20.518 13.057 22.4852 12.3446 24.9031 12.3446 28.1154 12.3446 30.8312 13.7697 33.0508 16.6197 35.2705 19.47 36.6691 25.4019 37.2464 34.4154 33.4568 29.9977 28.7469 27.7887 23.1167 27.7887 16.7648 27.7887 11.3237 30.1758 6.79423 34.9497 2.26474 39.7239 0 45.8871 0 53.4402 0 61.4561 2.38224 67.8868 7.14634 72.7321 11.9105 77.5771 18.0277 79.9997 25.4989 79.9997 33.511 79.9997 40.0975 76.9271 45.2588 70.7812 50.4198 64.6357 53.0003 54.5623 53.0003 40.5609 53.0003 26.2034 50.3114 15.8538 44.934 9.51221 39.5562 3.17062 32.5725 0 23.9828 0Z" fill="#FFFFFF" fill-rule="evenodd" transform="matrix(-1 0 0 1 1324 1939)"/><path d="M25.4987 38.851C28.4219 38.851 30.8943 39.9821 32.9153 42.2443 34.9363 44.5068 35.9468 47.8465 35.9468 52.2646 35.9468 57.1454 34.8101 60.9128 32.5363 63.5671 30.2624 66.221 27.6642 67.5482 24.7407 67.5482 21.9256 67.5482 19.5797 66.4616 17.7028 64.2885 15.8262 62.1154 14.8877 58.5526 14.8877 53.6003 14.8877 48.5058 15.8982 44.7739 17.9196 42.4048 19.9406 40.0356 22.4669 38.851 25.4987 38.851ZM23.9826 0C17.9556 0 12.966 1.66538 9.0138 4.99651 5.06199 8.32763 2.54445 13.164 1.46192 19.5056L16.187 21.1088C16.5479 18.116 17.4863 15.9073 19.0021 14.4821 20.5179 13.057 22.485 12.3446 24.9029 12.3446 28.1152 12.3446 30.831 13.7697 33.0506 16.6197 35.2702 19.47 36.6689 25.4019 37.2461 34.4154 33.4566 29.9977 28.7467 27.7887 23.1165 27.7887 16.7647 27.7887 11.3236 30.1758 6.79418 34.9497 2.26473 39.7239 0 45.8871 0 53.4402 0 61.4561 2.38222 67.8868 7.1463 72.7321 11.9104 77.5771 18.0276 79.9997 25.4987 79.9997 33.5108 79.9997 40.0972 76.9271 45.2585 70.7812 50.4195 64.6357 52.9999 54.5623 52.9999 40.5609 52.9999 26.2034 50.3111 15.8538 44.9337 9.51221 39.556 3.17062 32.5723 0 23.9826 0Z" fill="#FFFFFF" fill-rule="evenodd" transform="matrix(-1 0 0 1 1510 1939)"/><path d="M25.0176 38.851C27.8856 38.851 30.3114 39.9821 32.2942 42.2443 34.2771 44.5068 35.2686 47.8465 35.2686 52.2646 35.2686 57.1454 34.1533 60.9128 31.9224 63.5671 29.6914 66.221 27.1422 67.5482 24.2739 67.5482 21.5119 67.5482 19.2103 66.4616 17.3688 64.2885 15.5276 62.1154 14.6068 58.5526 14.6068 53.6003 14.6068 48.5058 15.5982 44.7739 17.5815 42.4048 19.5643 40.0356 22.0429 38.851 25.0176 38.851ZM23.5301 0C17.6168 0 12.7213 1.66538 8.84373 4.99651 4.96648 8.32763 2.49644 13.164 1.43434 19.5056L15.8816 21.1088C16.2356 18.116 17.1564 15.9073 18.6436 14.4821 20.1307 13.057 22.0608 12.3446 24.433 12.3446 27.5847 12.3446 30.2493 13.7697 32.427 16.6197 34.6047 19.47 35.977 25.4019 36.5434 34.4154 32.8253 29.9977 28.2043 27.7887 22.6803 27.7887 16.4483 27.7887 11.11 30.1758 6.66599 34.9497 2.222 39.7239 0 45.8871 0 53.4402 0 61.4561 2.33727 67.8868 7.01146 72.7321 11.6856 77.5771 17.6875 79.9997 25.0176 79.9997 32.8785 79.9997 39.3407 76.9271 44.4046 70.7812 49.4681 64.6357 51.9999 54.5623 51.9999 40.5609 51.9999 26.2034 49.3618 15.8538 44.0859 9.51221 38.8096 3.17062 31.9577 0 23.5301 0Z" fill="#FFFFFF" fill-rule="evenodd" transform="matrix(-1 0 0 1 1695 1939)"/><path d="M1237 2062 1735.69 2062 1792 2123 1735.69 2184 1237 2184Z" fill="#FFC000" fill-rule="evenodd"/><path d="M1459.96 2128.57 1459.96 2149.69 1474.74 2149.69C1480.49 2149.69 1484.14 2149.53 1485.68 2149.2 1488.06 2148.77 1489.99 2147.72 1491.48 2146.05 1492.97 2144.38 1493.72 2142.15 1493.72 2139.34 1493.72 2136.97 1493.14 2134.96 1491.99 2133.31 1490.84 2131.66 1489.18 2130.45 1487.01 2129.7 1484.83 2128.94 1480.11 2128.57 1472.85 2128.57ZM1459.96 2097.15 1459.96 2115.42 1470.42 2115.42C1476.64 2115.42 1480.51 2115.33 1482.02 2115.15 1484.75 2114.82 1486.9 2113.88 1488.46 2112.32 1490.03 2110.76 1490.81 2108.7 1490.81 2106.15 1490.81 2103.71 1490.13 2101.72 1488.79 2100.19 1487.44 2098.67 1485.43 2097.74 1482.77 2097.42 1481.19 2097.24 1476.64 2097.15 1469.13 2097.15ZM1519.87 2084 1578.49 2084 1578.49 2097.36 1535.84 2097.36 1535.84 2114.88 1575.52 2114.88 1575.52 2128.19 1535.84 2128.19 1535.84 2149.69 1580 2149.69 1580 2163 1519.87 2163ZM1444 2084 1475.6 2084C1481.86 2084 1486.52 2084.26 1489.59 2084.78 1492.67 2085.3 1495.42 2086.39 1497.84 2088.04 1500.27 2089.69 1502.29 2091.89 1503.91 2094.64 1505.53 2097.39 1506.34 2100.47 1506.34 2103.89 1506.34 2107.59 1505.34 2110.98 1503.34 2114.07 1501.35 2117.16 1498.64 2119.48 1495.23 2121.02 1500.05 2122.42 1503.75 2124.81 1506.34 2128.19 1508.93 2131.57 1510.22 2135.53 1510.22 2140.1 1510.22 2143.69 1509.38 2147.18 1507.71 2150.58 1506.04 2153.97 1503.76 2156.69 1500.86 2158.72 1497.97 2160.75 1494.4 2161.99 1490.16 2162.46 1487.5 2162.75 1481.08 2162.93 1470.91 2163L1444 2163Z" fill-rule="evenodd"/><path d="M0 24 35.5 24 35.5 0 70.9998 48 35.5 95.9999 35.5 71.9999 0 71.9999Z" fill="#FFFFFF" fill-rule="evenodd" transform="matrix(-1 0 0 1 1427 1886)"/><path d="M0 24 35.5 24 35.5 0 70.9998 48 35.5 95.9999 35.5 71.9999 0 71.9999Z" fill="#FFFFFF" fill-rule="evenodd" transform="matrix(-1 0 0 1 1612 1886)"/><path d="M0 24 35.4999 24 35.4999 0 70.9997 48 35.4999 95.9999 35.4999 71.9999 0 71.9999Z" fill="#FFFFFF" fill-rule="evenodd" transform="matrix(-1 0 0 1 1795 1886)"/></g></svg>