<svg width="562" height="366" xmlns="http://www.w3.org/2000/svg" xmlns:xlink="http://www.w3.org/1999/xlink" xml:space="preserve" overflow="hidden"><g transform="translate(-1235 -1392)"><rect x="1237.5" y="1394.5" width="66" height="225" stroke="#000000" stroke-width="4.58333" stroke-linecap="round" stroke-linejoin="round" stroke-miterlimit="10"/><rect x="1423.5" y="1394.5" width="65" height="225" stroke="#000000" stroke-width="4.58333" stroke-linecap="round" stroke-linejoin="round" stroke-miterlimit="10"/><rect x="1608.5" y="1394.5" width="66" height="225" stroke="#000000" stroke-width="4.58333" stroke-linecap="round" stroke-linejoin="round" stroke-miterlimit="10"/><rect x="1303.5" y="1394.5" width="120" height="225" stroke="#000000" stroke-width="4.58333" stroke-linecap="round" stroke-linejoin="round" stroke-miterlimit="10" fill="#E84040"/><rect x="1488.5" y="1394.5" width="120" height="225" stroke="#000000" stroke-width="4.58333" stroke-linecap="round" stroke-linejoin="round" stroke-miterlimit="10" fill="#0FB523"/><rect x="1674.5" y="1394.5" width="120" height="225" stroke="#000000" stroke-width="4.58333" stroke-linecap="round" stroke-linejoin="round" stroke-miterlimit="10" fill="#005CE4"/><path d="M55.0545 13.3641 55.0545 33.4105 43.2572 33.4105C35.6076 33.4105 30.8312 33.0872 28.9277 32.4405 27.0245 31.7938 25.5339 30.68 24.4568 29.0996 23.3792 27.5187 22.8406 25.5428 22.8406 23.1719 22.8406 20.5131 23.5497 18.3667 24.9682 16.7322 26.3871 15.0974 28.3891 14.0648 30.9749 13.6335 32.2678 13.4539 36.1462 13.3641 42.6107 13.3641ZM70.9998 0 37.4391 0C28.9997 0 22.8674 0.709321 19.0426 2.12833 15.2178 3.54733 12.1563 6.07141 9.85792 9.69985 7.55949 13.3283 6.41027 17.4778 6.41027 22.1479 6.41027 28.0756 8.15201 32.9706 11.6355 36.8326 15.1193 40.6945 20.3265 43.1285 27.2579 44.1343 23.8103 46.1461 20.9639 48.3555 18.7194 50.7626 16.4749 53.1694 13.4493 57.4445 9.64255 63.588L0 79.0001 19.0697 79.0001 30.5977 61.8094C34.6918 55.6663 37.493 51.7953 39.0013 50.1967 40.5096 48.5981 42.108 47.5024 43.7958 46.9093 45.4836 46.3166 48.1592 46.0204 51.8222 46.0204L55.0545 46.0204 55.0545 79.0001 70.9998 79.0001Z" fill="#FFFFFF" fill-rule="evenodd" transform="matrix(-1 0 0 1 1403 1417)"/><path d="M34.7059 0C24.8823 0 17.209 2.03916 11.6855 6.11783 6.1621 10.1961 2.60867 15.8333 1.02526 23.0285L16.8942 25.9669C18.0097 22.1202 20.1056 19.0834 23.1821 16.8572 26.259 14.631 30.1 13.5177 34.7059 13.5177 41.6869 13.5177 47.2372 15.7083 51.3574 20.0896 55.4773 24.471 57.5373 30.9719 57.5373 39.592 57.5373 48.8888 55.4505 55.8614 51.2762 60.5098 47.1023 65.1582 41.6329 67.4825 34.868 67.4825 31.5213 67.4825 28.1659 66.8323 24.8014 65.5323 21.437 64.232 18.5494 62.656 16.1384 60.8035L16.1384 50.8655 34.4361 50.8655 34.4361 37.6684 0 37.6684 0 68.8715C3.34634 72.0774 8.19521 74.9002 14.5463 77.3404 20.8973 79.7802 27.3292 81.0001 33.8424 81.0001 42.1185 81.0001 49.3334 79.2816 55.4864 75.8441 61.6394 72.407 66.2635 67.4914 69.3581 61.0975 72.4528 54.7036 73.9999 47.7489 73.9999 40.2328 73.9999 32.0758 72.2729 24.8271 68.8185 18.4867 65.364 12.1463 60.3081 7.28424 53.6513 3.90025 48.5776 1.29996 42.2624 0 34.7059 0Z" fill="#FFFFFF" fill-rule="evenodd" transform="matrix(-1 0 0 1 1584 1416)"/><path d="M50.0913 44.5652 50.0913 65.6895 35.3648 65.6895C29.6319 65.6895 25.995 65.528 24.4545 65.2047 22.0894 64.7735 20.1635 63.7227 18.6768 62.052 17.1897 60.3817 16.4461 58.1452 16.4461 55.343 16.4461 52.9721 17.0196 50.96 18.1662 49.3074 19.3127 47.6549 20.9699 46.4513 23.1378 45.6971 25.3053 44.9425 30.0082 44.5652 37.246 44.5652ZM50.0913 13.1487 50.0913 31.4165 39.6644 31.4165C33.4657 31.4165 29.6139 31.3267 28.1091 31.1471 25.3862 30.8238 23.245 29.8809 21.6864 28.3182 20.1278 26.7554 19.3485 24.6984 19.3485 22.1479 19.3485 19.7049 20.0205 17.72 21.3639 16.1931 22.7077 14.6665 24.7051 13.7414 27.3568 13.4181 28.9332 13.2385 33.4657 13.1487 40.9544 13.1487ZM66 0 34.505 0C28.2705 0 23.6213 0.260338 20.5579 0.781376 17.4945 1.30205 14.7531 2.38903 12.3347 4.04157 9.9162 5.69412 7.90074 7.8945 6.28831 10.6427 4.67588 13.3909 3.86984 16.4715 3.86984 19.8845 3.86984 23.585 4.86402 26.9799 6.85275 30.0696 8.84112 33.1592 11.5377 35.4762 14.9413 37.0212 10.1401 38.4221 6.44937 40.8111 3.86984 44.1883 1.28995 47.5651 0 51.535 0 56.0976 0 59.6902 0.833121 63.1839 2.49936 66.5788 4.16524 69.9737 6.44071 72.6861 9.32503 74.7159 12.2094 76.7457 15.7654 77.9942 19.9935 78.4609 22.6449 78.7484 29.0408 78.928 39.1809 79.0001L66 79.0001Z" fill="#FFFFFF" fill-rule="evenodd" transform="matrix(-1 0 0 1 1770 1417)"/><path d="M25.4987 39.3367C28.4219 39.3367 30.8943 40.4819 32.9153 42.7723 34.9363 45.0631 35.9468 48.4446 35.9468 52.9179 35.9468 57.8598 34.8101 61.6743 32.5363 64.3617 30.2624 67.0488 27.6642 68.3925 24.7407 68.3925 21.9256 68.3925 19.5797 67.2924 17.7028 65.0921 15.8262 62.8918 14.8877 59.2846 14.8877 54.2703 14.8877 49.1121 15.8982 45.3336 17.9196 42.9348 19.9406 40.5361 22.4669 39.3367 25.4987 39.3367ZM23.9826 0C17.9556 0 12.966 1.6862 9.0138 5.05896 5.06199 8.43173 2.54445 13.3285 1.46192 19.7494L16.187 21.3727C16.5479 18.3424 17.4863 16.1062 19.0021 14.6632 20.5179 13.2202 22.485 12.4989 24.9029 12.4989 28.1152 12.4989 30.831 13.9419 33.0506 16.8275 35.2702 19.7134 36.6689 25.7195 37.2461 34.8456 33.4566 30.3727 28.7467 28.1361 23.1165 28.1361 16.7647 28.1361 11.3236 30.553 6.79418 35.3866 2.26473 40.2205 0 46.4607 0 54.1082 0 62.2243 2.38222 68.7354 7.1463 73.6413 11.9104 78.5468 18.0276 80.9998 25.4987 80.9998 33.5108 80.9998 40.0972 77.8888 45.2585 71.666 50.4195 65.4437 52.9999 55.2443 52.9999 41.068 52.9999 26.5309 50.3111 16.052 44.9337 9.63112 39.556 3.21025 32.5723 0 23.9826 0Z" fill="#FFFFFF" fill-rule="evenodd" transform="matrix(-1 0 0 1 1388 1512)"/><path d="M25.0176 39.3367C27.8856 39.3367 30.3114 40.4819 32.2942 42.7723 34.2771 45.0631 35.2686 48.4446 35.2686 52.9179 35.2686 57.8598 34.1533 61.6743 31.9224 64.3617 29.6914 67.0488 27.1422 68.3925 24.2739 68.3925 21.5119 68.3925 19.2103 67.2924 17.3688 65.0921 15.5276 62.8918 14.6068 59.2846 14.6068 54.2703 14.6068 49.1121 15.5982 45.3336 17.5815 42.9348 19.5643 40.5361 22.0429 39.3367 25.0176 39.3367ZM23.5301 0C17.6168 0 12.7213 1.6862 8.84373 5.05896 4.96648 8.43173 2.49644 13.3285 1.43434 19.7494L15.8816 21.3727C16.2356 18.3424 17.1564 16.1062 18.6436 14.6632 20.1307 13.2202 22.0608 12.4989 24.433 12.4989 27.5847 12.4989 30.2493 13.9419 32.427 16.8275 34.6047 19.7134 35.977 25.7195 36.5434 34.8456 32.8253 30.3727 28.2043 28.1361 22.6803 28.1361 16.4483 28.1361 11.11 30.553 6.66599 35.3866 2.222 40.2205 0 46.4607 0 54.1082 0 62.2243 2.33727 68.7354 7.01146 73.6413 11.6856 78.5468 17.6875 80.9998 25.0176 80.9998 32.8785 80.9998 39.3407 77.8888 44.4046 71.666 49.4681 65.4437 51.9999 55.2443 51.9999 41.068 51.9999 26.5309 49.3618 16.052 44.0859 9.63112 38.8096 3.21025 31.9577 0 23.5301 0Z" fill="#FFFFFF" fill-rule="evenodd" transform="matrix(-1 0 0 1 1573 1512)"/><path d="M25.4987 39.3367C28.4219 39.3367 30.8943 40.4819 32.9153 42.7723 34.9363 45.0631 35.9468 48.4446 35.9468 52.9179 35.9468 57.8598 34.8101 61.6743 32.5363 64.3617 30.2624 67.0488 27.6642 68.3925 24.7407 68.3925 21.9256 68.3925 19.5797 67.2924 17.7028 65.0921 15.8262 62.8918 14.8877 59.2846 14.8877 54.2703 14.8877 49.1121 15.8982 45.3336 17.9196 42.9348 19.9406 40.5361 22.4669 39.3367 25.4987 39.3367ZM23.9826 0C17.9556 0 12.966 1.6862 9.0138 5.05896 5.06199 8.43173 2.54445 13.3285 1.46192 19.7494L16.187 21.3727C16.5479 18.3424 17.4863 16.1062 19.0021 14.6632 20.5179 13.2202 22.485 12.4989 24.9029 12.4989 28.1152 12.4989 30.831 13.9419 33.0506 16.8275 35.2702 19.7134 36.6689 25.7195 37.2461 34.8456 33.4566 30.3727 28.7467 28.1361 23.1165 28.1361 16.7647 28.1361 11.3236 30.553 6.79418 35.3866 2.26473 40.2205 0 46.4607 0 54.1082 0 62.2243 2.38222 68.7354 7.1463 73.6413 11.9104 78.5468 18.0276 80.9998 25.4987 80.9998 33.5108 80.9998 40.0972 77.8888 45.2585 71.666 50.4195 65.4437 52.9999 55.2443 52.9999 41.068 52.9999 26.5309 50.3111 16.052 44.9337 9.63112 39.556 3.21025 32.5723 0 23.9826 0Z" fill="#FFFFFF" fill-rule="evenodd" transform="matrix(-1 0 0 1 1759 1512)"/><path d="M1237 1636 1735.69 1636 1792 1697 1735.69 1758 1237 1758Z" fill="#FFC000" fill-rule="evenodd"/><path d="M1459.96 1702.57 1459.96 1723.69 1474.74 1723.69C1480.49 1723.69 1484.14 1723.53 1485.68 1723.2 1488.06 1722.77 1489.99 1721.72 1491.48 1720.05 1492.97 1718.38 1493.72 1716.15 1493.72 1713.34 1493.72 1710.97 1493.14 1708.96 1491.99 1707.31 1490.84 1705.66 1489.18 1704.45 1487.01 1703.7 1484.83 1702.94 1480.11 1702.57 1472.85 1702.57ZM1459.96 1671.15 1459.96 1689.42 1470.42 1689.42C1476.64 1689.42 1480.51 1689.33 1482.02 1689.15 1484.75 1688.82 1486.9 1687.88 1488.46 1686.32 1490.03 1684.76 1490.81 1682.7 1490.81 1680.15 1490.81 1677.71 1490.13 1675.72 1488.79 1674.19 1487.44 1672.67 1485.43 1671.74 1482.77 1671.42 1481.19 1671.24 1476.64 1671.15 1469.13 1671.15ZM1519.87 1658 1578.49 1658 1578.49 1671.36 1535.84 1671.36 1535.84 1688.88 1575.52 1688.88 1575.52 1702.19 1535.84 1702.19 1535.84 1723.69 1580 1723.69 1580 1737 1519.87 1737ZM1444 1658 1475.6 1658C1481.86 1658 1486.52 1658.26 1489.59 1658.78 1492.67 1659.3 1495.42 1660.39 1497.84 1662.04 1500.27 1663.69 1502.29 1665.89 1503.91 1668.64 1505.53 1671.39 1506.34 1674.47 1506.34 1677.88 1506.34 1681.58 1505.34 1684.98 1503.34 1688.07 1501.35 1691.16 1498.64 1693.48 1495.23 1695.02 1500.05 1696.42 1503.75 1698.81 1506.34 1702.19 1508.93 1705.57 1510.22 1709.53 1510.22 1714.1 1510.22 1717.69 1509.38 1721.18 1507.71 1724.58 1506.04 1727.97 1503.76 1730.69 1500.86 1732.72 1497.97 1734.75 1494.4 1735.99 1490.16 1736.46 1487.5 1736.75 1481.08 1736.93 1470.91 1737L1444 1737Z" fill-rule="evenodd"/></g></svg>