<svg width="1230" height="792" xmlns="http://www.w3.org/2000/svg" xmlns:xlink="http://www.w3.org/1999/xlink" xml:space="preserve" overflow="hidden"><defs><linearGradient x1="1996.25" y1="12.75" x2="2871.75" y2="888.25" gradientUnits="userSpaceOnUse" spreadMethod="reflect" id="fill0"><stop offset="0" stop-color="#959595"/><stop offset="0.5" stop-color="#FFFFFF"/><stop offset="1" stop-color="#D9D9D9"/></linearGradient><linearGradient x1="1982" y1="450" x2="2884" y2="450" gradientUnits="userSpaceOnUse" spreadMethod="reflect" id="fill1"><stop offset="0" stop-color="#FF0000"/><stop offset="0.5" stop-color="#00FF00"/><stop offset="1" stop-color="#0000FF"/></linearGradient></defs><g transform="translate(-1818 -76)"><path d="M1820.5 107.784C1820.5 91.6108 1833.61 78.4999 1849.78 78.4999L3016.22 78.4999C3032.39 78.4999 3045.5 91.6108 3045.5 107.784L3045.5 793.216C3045.5 809.389 3032.39 822.5 3016.22 822.5L1849.78 822.5C1833.61 822.5 1820.5 809.389 1820.5 793.216Z" stroke="#000000" stroke-width="4.58333" stroke-linecap="round" stroke-linejoin="round" stroke-miterlimit="10" fill="#215F9A" fill-rule="evenodd"/><rect x="1907.5" y="101.5" width="1053" height="698" stroke="#000000" stroke-width="4.58333" stroke-linecap="round" stroke-linejoin="round" stroke-miterlimit="10" fill="url(#fill0)"/><rect x="1952" y="143" width="963" height="614"/><rect x="1982" y="168" width="902" height="564" fill="url(#fill1)"/><text font-family="Arial,Arial_MSFontService,sans-serif" font-weight="700" font-size="330" transform="matrix(1 0 0 1 2157.87 594)">666</text><text fill="#FFFFFF" font-family="Arial,Arial_MSFontService,sans-serif" font-weight="700" font-size="330" transform="matrix(1 0 0 1 2157.87 544)">666</text><path d="M2982 219.5C2982 207.626 2991.63 198 3003.5 198 3015.37 198 3025 207.626 3025 219.5 3025 231.374 3015.37 241 3003.5 241 2991.63 241 2982 231.374 2982 219.5Z" stroke="#BFBFBF" stroke-width="13.75" stroke-linecap="round" stroke-linejoin="round" stroke-miterlimit="10" fill-rule="evenodd"/><path d="M2982 291.5C2982 279.626 2991.63 270 3003.5 270 3015.37 270 3025 279.626 3025 291.5 3025 303.374 3015.37 313 3003.5 313 2991.63 313 2982 303.374 2982 291.5Z" stroke="#BFBFBF" stroke-width="13.75" stroke-linecap="round" stroke-linejoin="round" stroke-miterlimit="10" fill-rule="evenodd"/><path d="M2982 363.5C2982 351.626 2991.63 342 3003.5 342 3015.37 342 3025 351.626 3025 363.5 3025 375.374 3015.37 385 3003.5 385 2991.63 385 2982 375.374 2982 363.5Z" stroke="#BFBFBF" stroke-width="13.75" stroke-linecap="round" stroke-linejoin="round" stroke-miterlimit="10" fill-rule="evenodd"/><path d="M2982 435.5C2982 423.626 2991.63 414 3003.5 414 3015.37 414 3025 423.626 3025 435.5 3025 447.374 3015.37 457 3003.5 457 2991.63 457 2982 447.374 2982 435.5Z" stroke="#BFBFBF" stroke-width="13.75" stroke-linecap="round" stroke-linejoin="round" stroke-miterlimit="10" fill-rule="evenodd"/><path d="M2982 507.5C2982 495.626 2991.63 486 3003.5 486 3015.37 486 3025 495.626 3025 507.5 3025 519.374 3015.37 529 3003.5 529 2991.63 529 2982 519.374 2982 507.5Z" stroke="#BFBFBF" stroke-width="13.75" stroke-linecap="round" stroke-linejoin="round" stroke-miterlimit="10" fill-rule="evenodd"/><path d="M2982 579.5C2982 567.626 2991.63 558 3003.5 558 3015.37 558 3025 567.626 3025 579.5 3025 591.374 3015.37 601 3003.5 601 2991.63 601 2982 591.374 2982 579.5Z" stroke="#BFBFBF" stroke-width="13.75" stroke-linecap="round" stroke-linejoin="round" stroke-miterlimit="10" fill-rule="evenodd"/><path d="M2982 651.5C2982 639.626 2991.63 630 3003.5 630 3015.37 630 3025 639.626 3025 651.5 3025 663.374 3015.37 673 3003.5 673 2991.63 673 2982 663.374 2982 651.5Z" stroke="#BFBFBF" stroke-width="13.75" stroke-linecap="round" stroke-linejoin="round" stroke-miterlimit="10" fill-rule="evenodd"/></g></svg>