<svg width="560" height="368" xmlns="http://www.w3.org/2000/svg" xmlns:xlink="http://www.w3.org/1999/xlink" xml:space="preserve" overflow="hidden"><g transform="translate(-1235 -936)"><rect x="0" y="0" width="186" height="225" stroke="#000000" stroke-width="4.58333" stroke-linecap="round" stroke-linejoin="round" stroke-miterlimit="10" fill="#E84040" transform="matrix(-1 0 0 1 1423.5 938.5)"/><rect x="0" y="0" width="185" height="225" stroke="#000000" stroke-width="4.58333" stroke-linecap="round" stroke-linejoin="round" stroke-miterlimit="10" fill="#0FB523" transform="matrix(-1 0 0 1 1608.5 938.5)"/><rect x="0" y="0" width="186" height="225" stroke="#000000" stroke-width="4.58333" stroke-linecap="round" stroke-linejoin="round" stroke-miterlimit="10" fill="#005CE4" transform="matrix(-1 0 0 1 1792.5 938.5)"/><path d="M54.279 13.195 54.279 32.9876 42.6479 32.9876C35.106 32.9876 30.3969 32.6683 28.5202 32.0298 26.6438 31.3913 25.1743 30.2917 24.1123 28.7312 23.0499 27.1703 22.5189 25.2195 22.5189 22.8786 22.5189 20.2534 23.218 18.1342 24.6165 16.5204 26.0154 14.9063 27.9892 13.8867 30.5386 13.4609 31.8133 13.2836 35.6371 13.195 42.0106 13.195ZM69.9998 0 36.9118 0C28.5912 0 22.5453 0.700342 18.7744 2.10138 15.0034 3.50243 11.9851 5.99456 9.71907 9.57706 7.45301 13.1596 6.31998 17.2565 6.31998 21.8676 6.31998 27.7202 8.03719 32.5532 11.4716 36.3663 14.9064 40.1794 20.0402 42.5825 26.874 43.5757 23.4749 45.5619 20.6686 47.7434 18.4557 50.12 16.2428 52.4963 13.2598 56.7174 9.50674 62.7831L0 78 18.8011 78 30.1668 61.027C34.2032 54.9617 36.9649 51.1396 38.452 49.5613 39.939 47.9829 41.5149 46.9011 43.1789 46.3155 44.843 45.7303 47.4809 45.4379 51.0923 45.4379L54.279 45.4379 54.279 78 69.9998 78Z" fill="#FFFFFF" fill-rule="evenodd" transform="matrix(-1 0 0 1 1370 965)"/><path d="M34.2369 0C24.546 0 16.9764 2.06433 11.5276 6.19336 6.07882 10.322 2.57342 16.0287 1.01141 23.3128L16.6659 26.2875C17.7664 22.3933 19.8339 19.319 22.8688 17.0653 25.9041 14.8116 29.6932 13.6846 34.2369 13.6846 41.1235 13.6846 46.5988 15.9023 50.6634 20.3377 54.7276 24.7731 56.7597 31.3542 56.7597 40.0808 56.7597 49.4924 54.7012 56.5511 50.5833 61.2569 46.4657 65.9627 41.0702 68.3156 34.3968 68.3156 31.0953 68.3156 27.7853 67.6574 24.4663 66.3414 21.1473 65.025 18.2987 63.4295 15.9203 61.5542L15.9203 51.4935 33.9707 51.4935 33.9707 38.1335 0 38.1335 0 69.7217C3.30112 72.9673 8.08446 75.825 14.3497 78.2953 20.6149 80.7652 26.9599 82.0002 33.385 82.0002 41.5493 82.0002 48.6667 80.2604 54.7366 76.7805 60.8064 73.3009 65.368 68.3247 68.4208 61.8518 71.4736 55.379 72.9999 48.3385 72.9999 40.7295 72.9999 32.4718 71.2962 25.1336 67.8885 18.7149 64.4807 12.2962 59.4931 7.37417 52.9263 3.9484 47.9211 1.31601 41.6913 0 34.2369 0Z" fill="#FFFFFF" fill-rule="evenodd" transform="matrix(-1 0 0 1 1551 963)"/><path d="M50.0913 44.0011 50.0913 64.858 35.3648 64.858C29.6319 64.858 25.995 64.6985 24.4545 64.3793 22.0894 63.9535 20.1635 62.916 18.6768 61.2665 17.1897 59.6174 16.4461 57.4091 16.4461 54.6424 16.4461 52.3015 17.0196 50.3149 18.1662 48.6833 19.3127 47.0516 20.9699 45.8633 23.1378 45.1186 25.3053 44.3736 30.0082 44.0011 37.246 44.0011ZM50.0913 12.9822 50.0913 31.0188 39.6644 31.0188C33.4657 31.0188 29.6139 30.9302 28.1091 30.7529 25.3862 30.4336 23.245 29.5027 21.6864 27.9597 20.1278 26.4167 19.3485 24.3858 19.3485 21.8676 19.3485 19.4555 20.0205 17.4957 21.3639 15.9881 22.7077 14.4809 24.7051 13.5675 27.3568 13.2482 28.9332 13.0709 33.4657 12.9822 40.9544 12.9822ZM66 0 34.505 0C28.2705 0 23.6213 0.257042 20.5579 0.771485 17.4945 1.28557 14.7531 2.35878 12.3347 3.99041 9.9162 5.62204 7.90074 7.79457 6.28831 10.508 4.67588 13.2214 3.86984 16.263 3.86984 19.6328 3.86984 23.2865 4.86402 26.6384 6.85275 29.6889 8.84112 32.7395 11.5377 35.0271 14.9413 36.5526 10.1401 37.9357 6.44937 40.2945 3.86984 43.6289 1.28995 46.963 0 50.8826 0 55.3875 0 58.9346 0.833121 62.3841 2.49936 65.736 4.16524 69.0879 6.44071 71.7659 9.32503 73.7701 12.2094 75.7742 15.7654 77.0069 19.9935 77.4677 22.6449 77.7516 29.0408 77.9289 39.1809 78L66 78Z" fill="#FFFFFF" fill-rule="evenodd" transform="matrix(-1 0 0 1 1730 965)"/><path d="M26.0538 42.7771C29.7579 42.7771 32.5179 44.0409 34.3338 46.5689 36.15 49.0965 37.0579 51.838 37.0579 54.793 37.0579 58.9232 35.9879 62.1452 33.8484 64.4593 31.7086 66.7734 29.0385 67.9307 25.8381 67.9307 22.7095 67.9307 20.1202 66.8179 18.0706 64.5928 16.0207 62.3677 14.9957 59.1547 14.9957 54.9534 14.9957 51.2861 16.0388 48.3401 18.1243 46.115 20.2101 43.8898 22.8534 42.7771 26.0538 42.7771ZM26.1078 11.909C29.0207 11.909 31.34 12.7638 33.0663 14.4725 34.7922 16.1817 35.6556 18.4423 35.6556 21.2549 35.6556 24.2458 34.8013 26.5775 33.0931 28.2511 31.3849 29.9243 29.1106 30.7611 26.2694 30.7611 23.3927 30.7611 21.0912 29.9154 19.3649 28.2242 17.639 26.533 16.776 24.1923 16.776 21.2014 16.776 18.3889 17.6299 16.1372 19.3381 14.446 21.0463 12.7548 23.3028 11.909 26.1078 11.909ZM26.2694 0C18.7538 0 12.9192 1.9047 8.76566 5.71409 4.61207 9.52384 2.53528 14.348 2.53528 20.187 2.53528 23.8184 3.48814 27.0493 5.39422 29.8798 7.3003 32.7103 9.97911 34.873 13.4314 36.3686 9.04437 38.1129 5.70882 40.6585 3.42544 44.0054 1.14169 47.3522 0 51.2151 0 55.5943 0 62.8216 2.32869 68.6961 6.98534 73.2178 11.6424 77.7394 17.8369 80.0001 25.5685 80.0001 32.7604 80.0001 38.7479 78.1309 43.5307 74.3926 49.1768 69.9778 51.9999 63.9254 51.9999 56.2352 51.9999 51.9984 50.939 48.1086 48.8173 44.5662 46.6956 41.0234 43.351 38.2909 38.7842 36.3686 42.7036 34.7309 45.5539 32.4789 47.3338 29.6129 49.1138 26.7468 50.0039 23.6049 50.0039 20.187 50.0039 14.348 47.9453 9.52384 43.8276 5.71409 39.7102 1.9047 33.8575 0 26.2694 0Z" fill="#FFFFFF" fill-rule="evenodd" transform="matrix(-1 0 0 1 1723 1058)"/><path d="M26.0538 42.7771C29.7579 42.7771 32.5179 44.0409 34.3338 46.5689 36.15 49.0965 37.0579 51.838 37.0579 54.793 37.0579 58.9232 35.9879 62.1452 33.8484 64.4593 31.7086 66.7734 29.0385 67.9307 25.8381 67.9307 22.7095 67.9307 20.1202 66.8179 18.0706 64.5928 16.0207 62.3677 14.9957 59.1547 14.9957 54.9534 14.9957 51.2861 16.0388 48.3401 18.1243 46.115 20.2101 43.8898 22.8534 42.7771 26.0538 42.7771ZM26.1078 11.909C29.0207 11.909 31.34 12.7638 33.0663 14.4725 34.7922 16.1817 35.6556 18.4423 35.6556 21.2549 35.6556 24.2458 34.8013 26.5775 33.0931 28.2511 31.3849 29.9243 29.1106 30.7611 26.2694 30.7611 23.3927 30.7611 21.0912 29.9154 19.3649 28.2242 17.639 26.533 16.776 24.1923 16.776 21.2014 16.776 18.3889 17.6299 16.1372 19.3381 14.446 21.0463 12.7548 23.3028 11.909 26.1078 11.909ZM26.2694 0C18.7538 0 12.9192 1.9047 8.76566 5.71409 4.61207 9.52384 2.53528 14.348 2.53528 20.187 2.53528 23.8184 3.48814 27.0493 5.39422 29.8798 7.3003 32.7103 9.97911 34.873 13.4314 36.3686 9.04437 38.1129 5.70882 40.6585 3.42544 44.0054 1.14169 47.3522 0 51.2151 0 55.5943 0 62.8216 2.32869 68.6961 6.98534 73.2178 11.6424 77.7394 17.8369 80.0001 25.5685 80.0001 32.7604 80.0001 38.7479 78.1309 43.5307 74.3926 49.1768 69.9778 51.9999 63.9254 51.9999 56.2352 51.9999 51.9984 50.939 48.1086 48.8173 44.5662 46.6956 41.0234 43.351 38.2909 38.7842 36.3686 42.7036 34.7309 45.5539 32.4789 47.3338 29.6129 49.1138 26.7468 50.0039 23.6049 50.0039 20.187 50.0039 14.348 47.9453 9.52384 43.8276 5.71409 39.7102 1.9047 33.8575 0 26.2694 0Z" fill="#FFFFFF" fill-rule="evenodd" transform="matrix(-1 0 0 1 1542 1058)"/><path d="M26.054 42.7771C29.7581 42.7771 32.5182 44.0409 34.334 46.5689 36.1502 49.0965 37.0581 51.838 37.0581 54.793 37.0581 58.9232 35.9882 62.1452 33.8487 64.4593 31.7088 66.7734 29.0387 67.9307 25.8383 67.9307 22.7097 67.9307 20.1204 66.8179 18.0708 64.5928 16.0208 62.3677 14.9958 59.1547 14.9958 54.9534 14.9958 51.2861 16.0389 48.3401 18.1244 46.115 20.2103 43.8898 22.8536 42.7771 26.054 42.7771ZM26.108 11.909C29.0209 11.909 31.3402 12.7638 33.0665 14.4725 34.7925 16.1817 35.6558 18.4423 35.6558 21.2549 35.6558 24.2458 34.8015 26.5775 33.0933 28.2511 31.3852 29.9243 29.1108 30.7611 26.2696 30.7611 23.3929 30.7611 21.0914 29.9154 19.365 28.2242 17.6391 26.533 16.7761 24.1923 16.7761 21.2014 16.7761 18.3889 17.63 16.1372 19.3382 14.446 21.0464 12.7548 23.303 11.909 26.108 11.909ZM26.2696 0C18.754 0 12.9193 1.9047 8.76572 5.71409 4.61211 9.52384 2.5353 14.348 2.5353 20.187 2.5353 23.8184 3.48817 27.0493 5.39426 29.8798 7.30036 32.7103 9.97918 34.873 13.4315 36.3686 9.04444 38.1129 5.70886 40.6585 3.42546 44.0054 1.1417 47.3522 0 51.2151 0 55.5943 0 62.8216 2.32871 68.6961 6.98539 73.2178 11.6424 77.7394 17.837 80.0001 25.5686 80.0001 32.7606 80.0001 38.7482 78.1309 43.531 74.3926 49.1772 69.9778 52.0003 63.9254 52.0003 56.2352 52.0003 51.9984 50.9394 48.1086 48.8176 44.5662 46.6959 41.0234 43.3512 38.2909 38.7845 36.3686 42.7039 34.7309 45.5542 32.4789 47.3342 29.6129 49.1141 26.7468 50.0043 23.6049 50.0043 20.187 50.0043 14.348 47.9456 9.52384 43.8279 5.71409 39.7105 1.9047 33.8577 0 26.2696 0Z" fill="#FFFFFF" fill-rule="evenodd" transform="matrix(-1 0 0 1 1358 1058)"/><path d="M1237 1182 1735.69 1182 1792 1243 1735.69 1304 1237 1304Z" fill="#FFC000" fill-rule="evenodd"/><path d="M1459.96 1247.57 1459.96 1268.69 1474.74 1268.69C1480.49 1268.69 1484.14 1268.53 1485.68 1268.2 1488.06 1267.77 1489.99 1266.72 1491.48 1265.05 1492.97 1263.38 1493.72 1261.15 1493.72 1258.34 1493.72 1255.97 1493.14 1253.96 1491.99 1252.31 1490.84 1250.66 1489.18 1249.45 1487.01 1248.7 1484.83 1247.94 1480.11 1247.57 1472.85 1247.57ZM1459.96 1216.15 1459.96 1234.42 1470.42 1234.42C1476.64 1234.42 1480.51 1234.33 1482.02 1234.15 1484.75 1233.82 1486.9 1232.88 1488.46 1231.32 1490.03 1229.76 1490.81 1227.7 1490.81 1225.15 1490.81 1222.71 1490.13 1220.72 1488.79 1219.19 1487.44 1217.67 1485.43 1216.74 1482.77 1216.42 1481.19 1216.24 1476.64 1216.15 1469.13 1216.15ZM1519.87 1203 1578.49 1203 1578.49 1216.36 1535.84 1216.36 1535.84 1233.88 1575.52 1233.88 1575.52 1247.19 1535.84 1247.19 1535.84 1268.69 1580 1268.69 1580 1282 1519.87 1282ZM1444 1203 1475.6 1203C1481.86 1203 1486.52 1203.26 1489.59 1203.78 1492.67 1204.3 1495.42 1205.39 1497.84 1207.04 1500.27 1208.69 1502.29 1210.89 1503.91 1213.64 1505.53 1216.39 1506.34 1219.47 1506.34 1222.88 1506.34 1226.59 1505.34 1229.98 1503.34 1233.07 1501.35 1236.16 1498.64 1238.48 1495.23 1240.02 1500.05 1241.42 1503.75 1243.81 1506.34 1247.19 1508.93 1250.57 1510.22 1254.53 1510.22 1259.1 1510.22 1262.69 1509.38 1266.18 1507.71 1269.58 1506.04 1272.97 1503.76 1275.69 1500.86 1277.72 1497.97 1279.75 1494.4 1280.99 1490.16 1281.46 1487.5 1281.75 1481.08 1281.93 1470.91 1282L1444 1282Z" fill-rule="evenodd"/></g></svg>