<svg width="1230" height="791" xmlns="http://www.w3.org/2000/svg" xmlns:xlink="http://www.w3.org/1999/xlink" xml:space="preserve" overflow="hidden"><defs><linearGradient x1="587" y1="1451" x2="1462" y2="2326" gradientUnits="userSpaceOnUse" spreadMethod="reflect" id="fill0"><stop offset="0" stop-color="#959595"/><stop offset="0.5" stop-color="#FFFFFF"/><stop offset="1" stop-color="#D9D9D9"/></linearGradient><linearGradient x1="572" y1="1887.5" x2="1475" y2="1887.5" gradientUnits="userSpaceOnUse" spreadMethod="reflect" id="fill1"><stop offset="0" stop-color="#FF0000"/><stop offset="0.5" stop-color="#00FF00"/><stop offset="1" stop-color="#0000FF"/></linearGradient></defs><g transform="translate(-409 -1514)"><path d="M411.5 1545.78C411.5 1529.61 424.611 1516.5 440.784 1516.5L1607.22 1516.5C1623.39 1516.5 1636.5 1529.61 1636.5 1545.78L1636.5 2231.22C1636.5 2247.39 1623.39 2260.5 1607.22 2260.5L440.784 2260.5C424.611 2260.5 411.5 2247.39 411.5 2231.22Z" stroke="#000000" stroke-width="4.58333" stroke-linecap="round" stroke-linejoin="round" stroke-miterlimit="10" fill="#215F9A" fill-rule="evenodd"/><rect x="498.5" y="1539.5" width="1052" height="698" stroke="#000000" stroke-width="4.58333" stroke-linecap="round" stroke-linejoin="round" stroke-miterlimit="10" fill="url(#fill0)"/><rect x="542" y="1581" width="964" height="614"/><rect x="572" y="1606" width="903" height="563" fill="url(#fill1)"/><text font-family="Arial,Arial_MSFontService,sans-serif" font-weight="700" font-size="330" transform="matrix(1 0 0 1 748.498 2032)">888</text><text fill="#FFFFFF" font-family="Arial,Arial_MSFontService,sans-serif" font-weight="700" font-size="330" transform="matrix(1 0 0 1 748.498 1982)">888</text><path d="M1573 1657.5C1573 1645.63 1582.63 1636 1594.5 1636 1606.37 1636 1616 1645.63 1616 1657.5 1616 1669.37 1606.37 1679 1594.5 1679 1582.63 1679 1573 1669.37 1573 1657.5Z" stroke="#BFBFBF" stroke-width="13.75" stroke-linecap="round" stroke-linejoin="round" stroke-miterlimit="10" fill-rule="evenodd"/><path d="M1573 1729.5C1573 1717.63 1582.63 1708 1594.5 1708 1606.37 1708 1616 1717.63 1616 1729.5 1616 1741.37 1606.37 1751 1594.5 1751 1582.63 1751 1573 1741.37 1573 1729.5Z" stroke="#BFBFBF" stroke-width="13.75" stroke-linecap="round" stroke-linejoin="round" stroke-miterlimit="10" fill-rule="evenodd"/><path d="M1573 1801.5C1573 1789.63 1582.63 1780 1594.5 1780 1606.37 1780 1616 1789.63 1616 1801.5 1616 1813.37 1606.37 1823 1594.5 1823 1582.63 1823 1573 1813.37 1573 1801.5Z" stroke="#BFBFBF" stroke-width="13.75" stroke-linecap="round" stroke-linejoin="round" stroke-miterlimit="10" fill-rule="evenodd"/><path d="M1573 1872.5C1573 1860.63 1582.63 1851 1594.5 1851 1606.37 1851 1616 1860.63 1616 1872.5 1616 1884.37 1606.37 1894 1594.5 1894 1582.63 1894 1573 1884.37 1573 1872.5Z" stroke="#BFBFBF" stroke-width="13.75" stroke-linecap="round" stroke-linejoin="round" stroke-miterlimit="10" fill-rule="evenodd"/><path d="M1573 1944.5C1573 1932.63 1582.63 1923 1594.5 1923 1606.37 1923 1616 1932.63 1616 1944.5 1616 1956.37 1606.37 1966 1594.5 1966 1582.63 1966 1573 1956.37 1573 1944.5Z" stroke="#BFBFBF" stroke-width="13.75" stroke-linecap="round" stroke-linejoin="round" stroke-miterlimit="10" fill-rule="evenodd"/><path d="M1573 2016.5C1573 2004.63 1582.63 1995 1594.5 1995 1606.37 1995 1616 2004.63 1616 2016.5 1616 2028.37 1606.37 2038 1594.5 2038 1582.63 2038 1573 2028.37 1573 2016.5Z" stroke="#BFBFBF" stroke-width="13.75" stroke-linecap="round" stroke-linejoin="round" stroke-miterlimit="10" fill-rule="evenodd"/><path d="M1573 2088.5C1573 2076.63 1582.63 2067 1594.5 2067 1606.37 2067 1616 2076.63 1616 2088.5 1616 2100.37 1606.37 2110 1594.5 2110 1582.63 2110 1573 2100.37 1573 2088.5Z" stroke="#BFBFBF" stroke-width="13.75" stroke-linecap="round" stroke-linejoin="round" stroke-miterlimit="10" fill-rule="evenodd"/></g></svg>