<svg width="1365" height="856" xmlns="http://www.w3.org/2000/svg" xmlns:xlink="http://www.w3.org/1999/xlink" xml:space="preserve" overflow="hidden"><defs><clipPath id="clip0"><rect x="2671" y="1417" width="1365" height="856"/></clipPath></defs><g clip-path="url(#clip0)" transform="translate(-2671 -1417)"><path d="M2979 1639 3332 1815.24 3332 2271.41 3328.82 2273 2979 2098.35 2979 1639Z" fill="#54C71B" fill-rule="evenodd"/><path d="M3728 1641 3728 2098.65 3381.72 2272 3381.72 1815.07 3381 1814.71 3728 1641Z" fill="#005CE4" fill-rule="evenodd"/><path d="M3353.5 1417 3703 1591.52 3703 1595.71 3355.95 1769 3004 1593.26 3004 1591.52 3353.5 1417Z" fill="#E84040" fill-rule="evenodd"/><path d="M2888.88 1417 2888.88 1417 2979 1417 2979 1447.66 2957.14 1447.66 2957.14 1447.96 2953.24 1447.66C2912.52 1447.66 2879.51 1473.14 2879.51 1504.59L2879.53 1504.71 2879.51 1504.71 2879.51 1589.78 2879.51 1592.97 2879.6 1592.97 2879.6 1731.54 2879.6 1735.3 2879.35 1735.3 2878.75 1744.59C2873.45 1784.85 2843.95 1819.57 2801.66 1839.96L2789.99 1844.5 2801.66 1849.04C2843.95 1869.43 2873.45 1904.15 2878.75 1944.41L2879.35 1953.7 2879.6 1953.7 2879.6 1957.46 2879.6 2096.03 2879.51 2096.03 2879.51 2099.22 2879.51 2184.29 2879.53 2184.29 2879.51 2184.41C2879.51 2215.86 2912.52 2241.34 2953.24 2241.34L2957.14 2241.04 2957.14 2241.34 2979 2241.34 2979 2272 2888.88 2272 2888.88 2272 2888.87 2272 2887.53 2272 2887.53 2271.9 2866.23 2270.24C2821.44 2263.16 2786.35 2235.49 2778.28 2200.6L2776.62 2186.03 2776.53 2186.03 2776.53 2185.25 2776.53 2086.5 2776.61 2086.5 2776.61 2075.62 2776.61 2075.62 2776.61 1917.34 2776.61 1917.33 2776.61 1917.33 2776.61 1916.88 2776.56 1916.88 2775.46 1907.25C2770.17 1884.36 2747.14 1866.2 2717.74 1861.56L2703.27 1860.43 2703.27 1860.4 2702.88 1860.4 2671 1860.4 2671 1828.6 2702.88 1828.6 2703.27 1828.6 2703.27 1828.57 2717.74 1827.44C2747.14 1822.8 2770.17 1804.64 2775.46 1781.75L2776.56 1772.12 2776.61 1772.12 2776.61 1771.67 2776.61 1771.67 2776.61 1771.66 2776.61 1613.38 2776.61 1613.38 2776.61 1602.5 2776.53 1602.5 2776.53 1503.75 2776.53 1502.97 2776.62 1502.97 2778.28 1488.4C2786.35 1453.5 2821.44 1425.84 2866.23 1418.76L2887.53 1417.1 2887.53 1417 2888.87 1417Z" fill-rule="evenodd"/><path d="M217.876 0 217.878 0.00035346 308 0.00035346 308 30.6552 286.143 30.6552 286.143 30.9592 282.243 30.6556C241.523 30.6556 208.513 56.1443 208.513 87.5867L208.529 87.7118 208.514 87.7118 208.514 172.776 208.514 175.974 208.601 175.974 208.601 314.536 208.601 318.302 208.355 318.302 207.747 327.595C202.453 367.847 172.952 402.573 130.663 422.957L118.992 427.5 130.663 432.043C172.952 452.427 202.453 487.153 207.747 527.405L208.355 536.698 208.601 536.698 208.601 540.464 208.601 679.026 208.514 679.026 208.514 682.224 208.514 767.288 208.529 767.288 208.513 767.413C208.513 798.856 241.523 824.344 282.243 824.344L286.143 824.041 286.143 824.345 308 824.345 308 855 217.878 855 217.876 855 217.874 855 216.534 855 216.534 854.895 195.234 853.238C150.438 846.159 115.352 818.495 107.281 783.604L105.616 769.032 105.526 769.032 105.526 768.248 105.526 669.503 105.614 669.503 105.614 658.617 105.613 658.617 105.613 500.336 105.614 500.332 105.613 500.329 105.613 499.88 105.562 499.88 104.462 490.255C99.1654 467.357 76.1406 449.203 46.7431 444.558L32.2733 443.431 32.2733 443.401 31.884 443.401 0 443.401 0 411.599 31.884 411.599 32.2733 411.599 32.2733 411.569 46.7431 410.442C76.1406 405.797 99.1654 387.642 104.462 364.746L105.562 355.12 105.613 355.12 105.613 354.672 105.614 354.668 105.613 354.664 105.613 196.383 105.614 196.383 105.614 185.497 105.526 185.497 105.526 86.7522 105.526 85.9682 105.616 85.9682 107.281 71.3957C115.352 36.505 150.438 8.84074 195.234 1.7627L216.534 0.104624 216.534 0.00035346 217.874 0.00035346Z" fill-rule="evenodd" transform="matrix(-1 0 0 1 4036 1417)"/></g></svg>