<svg width="1789" height="1179" xmlns="http://www.w3.org/2000/svg" xmlns:xlink="http://www.w3.org/1999/xlink" xml:space="preserve" overflow="hidden"><defs><clipPath id="clip0"><rect x="2535" y="1245" width="1789" height="1179"/></clipPath></defs><g clip-path="url(#clip0)" transform="translate(-2535 -1245)"><path d="M3428.92 1315C3517.76 1315 3589.78 1387.03 3589.78 1475.88L3589.78 1751.18 3697.67 1751.18 3697.67 1520.24C3697.67 1458.56 3747.66 1408.56 3809.33 1408.56 3871.01 1408.56 3921 1458.56 3921 1520.24L3921 1862.86 3921 1862.86C3921 1916.82 3882.72 1961.85 3831.84 1972.27L3809.33 1974.53 3809.33 1974.53 3809.33 1974.53 3589.78 1974.53 3589.78 2355 3268.06 2355 3268.06 2197.89 3049.67 2197.89 3049.67 2197.89 3049.67 2197.89C2987.99 2197.89 2938 2147.89 2938 2086.21L2938 1743.6C2938 1681.92 2987.99 1631.92 3049.67 1631.92 3111.34 1631.92 3161.33 1681.92 3161.33 1743.6L3161.33 1974.53 3268.06 1974.53 3268.06 1475.88C3268.06 1387.03 3340.08 1315 3428.92 1315Z" fill="#80A93D" fill-rule="evenodd"/><path d="M144.65 0 144.647 0.000268357 0 0.000268357 0 72.4091 20.0632 72.4091 56.7565 72.4091 56.7565 72.9163 61.7786 72.4094C114.205 72.4094 156.705 114.959 156.705 167.446L156.684 167.655 156.705 167.655 156.705 180.437 156.642 180.437 156.642 411.743 156.642 418.028 156.959 418.028 157.741 433.542C163.194 487.296 188.593 535.147 226.411 569.56L252.721 589.5 226.411 609.44C188.593 643.853 163.194 691.704 157.741 745.459L156.959 760.972 156.642 760.972 156.642 767.258 156.642 998.563 156.705 998.563 156.705 1011.34 156.684 1011.34 156.705 1011.55C156.705 1064.04 114.205 1106.59 61.7786 1106.59L56.7565 1106.08 56.7565 1106.59 20.0632 1106.59 0 1106.59 0 1179 144.647 1179 144.65 1179 144.653 1179 146.378 1179 146.378 1178.83 173.802 1176.06C231.477 1164.24 276.649 1118.06 287.04 1059.82L289.184 1035.49 289.3 1035.49 289.3 1034.18 289.3 869.344 289.237 869.344 289.237 721.506 289.237 721.5 289.237 721.494 289.237 720.745 289.303 720.745 290.719 704.677C297.539 666.455 327.183 636.148 365.032 628.394L383.662 626.514 383.662 626.464 384.163 626.464 459 626.464 459 624.946 459 554.054 459 552.537 384.163 552.537 383.662 552.537 383.662 552.486 365.032 550.606C327.183 542.852 297.539 512.546 290.719 474.323L289.303 458.255 289.237 458.255 289.237 457.506 289.237 457.5 289.237 457.494 289.237 309.656 289.3 309.656 289.3 144.818 289.3 143.509 289.184 143.509 287.04 119.183C276.649 60.9387 231.477 14.7577 173.802 2.942L146.378 0.174432 146.378 0.000268357 144.653 0.000268357Z" fill="#9C5A94" fill-rule="evenodd" transform="matrix(-1 1.22465e-16 1.22465e-16 1 2994 1245)"/><path d="M4008.97 1245 4008.96 1245 3864 1245 3864 1317.41 3884.11 1317.41 3920.88 1317.41 3920.88 1317.92 3925.91 1317.41C3978.45 1317.41 4021.05 1359.96 4021.05 1412.45L4021.03 1412.66 4021.05 1412.66 4021.05 1425.44 4020.98 1425.44 4020.98 1656.74 4020.98 1663.03 4021.3 1663.03 4022.08 1678.54C4027.55 1732.3 4053 1780.15 4090.9 1814.56L4117.27 1834.5 4090.9 1854.44C4053 1888.85 4027.55 1936.7 4022.08 1990.46L4021.3 2005.97 4020.98 2005.97 4020.98 2012.26 4020.98 2243.56 4021.05 2243.56 4021.05 2256.34 4021.03 2256.34 4021.05 2256.55C4021.05 2309.04 3978.45 2351.59 3925.91 2351.59L3920.88 2351.08 3920.88 2351.59 3884.11 2351.59 3864 2351.59 3864 2424 4008.96 2424 4008.97 2424 4008.97 2424 4010.7 2424 4010.7 2423.83 4038.18 2421.06C4095.98 2409.24 4141.25 2363.06 4151.67 2304.82L4153.81 2280.49 4153.93 2280.49 4153.93 2279.18 4153.93 2114.34 4153.87 2114.34 4153.87 1966.51 4153.87 1966.5 4153.87 1966.49 4153.87 1965.74 4153.93 1965.74 4155.35 1949.68C4162.19 1911.45 4191.9 1881.15 4229.83 1873.39L4248.5 1871.51 4248.5 1871.46 4249 1871.46 4324 1871.46 4324 1869.95 4324 1799.05 4324 1797.54 4249 1797.54 4248.5 1797.54 4248.5 1797.49 4229.83 1795.61C4191.9 1787.85 4162.19 1757.55 4155.35 1719.32L4153.93 1703.26 4153.87 1703.26 4153.87 1702.51 4153.87 1702.5 4153.87 1702.49 4153.87 1554.66 4153.93 1554.66 4153.93 1389.82 4153.93 1388.51 4153.81 1388.51 4151.67 1364.18C4141.25 1305.94 4095.98 1259.76 4038.18 1247.94L4010.7 1245.17 4010.7 1245 4008.97 1245Z" fill="#9C5A94" fill-rule="evenodd"/></g></svg>